<svg xmlns="http://www.w3.org/2000/svg" viewBox="0 0 64 64" id="mobile-accounting"><path fill="#4c4c4c" d="M41,22V6a4,4,0,0,0-4-4H9A4,4,0,0,0,5,6V58a4,4,0,0,0,4,4H35Z"></path><path fill="#5b5b5b" d="M35.45,59,41,22V6a4,4,0,0,0-4-4H9a3.959,3.959,0,0,0-1.953.529A4.061,4.061,0,0,0,7,3V55a4,4,0,0,0,4,4Z"></path><rect width="36" height="44" x="5" y="10" fill="#c0cee8"></rect><rect width="34" height="44" x="7" y="10" fill="#d6dfef"></rect><rect width="8" height="2" x="19" y="5" fill="#fff"></rect><circle cx="23" cy="58" r="3" fill="#fff"></circle><path fill="#fdb716" d="M20,27V37A10,10,0,0,1,10,27Z"></path><path fill="#8bc000" d="M31,30a9.987,9.987,0,0,1-8,4V24H13a10,10,0,0,1,19.9-1.4"></path><polygon fill="#fdb716" points="31 46 27 46 27 39 23 39 23 45 19 45 19 41 15 41 15 44 11 44 11 50 31 50 31 46"></polygon><rect width="23" height="2" x="8" y="49" fill="#fff"></rect><rect width="4" height="8" x="15" y="41" fill="#0068dd"></rect><rect width="4" height="4" x="19" y="45" fill="#8bc000"></rect><rect width="4" height="10" x="23" y="39" fill="#e9353f"></rect><path fill="#0056c0" d="M55,22H35a4,4,0,0,0-4,4h0V58a4,4,0,0,0,4,4H55a4,4,0,0,0,4-4V26A4,4,0,0,0,55,22Z"></path><path fill="#0068dd" d="M55,22H35a3.974,3.974,0,0,0-.892.108A3.974,3.974,0,0,0,34,23V55a4,4,0,0,0,4,4H58a3.974,3.974,0,0,0,.892-.108A3.974,3.974,0,0,0,59,58V26A4,4,0,0,0,55,22Z"></path><rect width="20" height="8" x="35" y="26" fill="#d6dfef"></rect><rect width="4" height="8" x="51" y="50" fill="#d6dfef"></rect><rect width="4" height="8" x="51" y="38" fill="#d6dfef"></rect><rect width="4" height="4" x="35" y="38" fill="#d6dfef"></rect><rect width="4" height="4" x="43" y="38" fill="#d6dfef"></rect><rect width="4" height="4" x="35" y="46" fill="#d6dfef"></rect><rect width="4" height="4" x="43" y="46" fill="#d6dfef"></rect><rect width="4" height="4" x="35" y="54" fill="#d6dfef"></rect><rect width="4" height="4" x="43" y="54" fill="#d6dfef"></rect><rect width="19" height="7" x="36" y="26" fill="#fff"></rect><rect width="8" height="2" x="19" y="5"></rect><path d="M55,21H42V6a5.006,5.006,0,0,0-5-5H9A5.006,5.006,0,0,0,4,6V58a5.006,5.006,0,0,0,5,5H55a5.006,5.006,0,0,0,5-5V26A5.006,5.006,0,0,0,55,21ZM6,6A3,3,0,0,1,9,3H37a3,3,0,0,1,3,3V9H6Zm0,5H40V21H35a4.9,4.9,0,0,0-1.366.214A11,11,0,0,0,12,24a1,1,0,0,0,1,1h9v9a1,1,0,0,0,1,1,10.9,10.9,0,0,0,7-2.512V45H28V39a1,1,0,0,0-1-1H23a1,1,0,0,0-1,1v5H20V41a1,1,0,0,0-1-1H15a1,1,0,0,0-1,1v2H11a1,1,0,0,0-1,1v5H8v2H30v2H6ZM30,47v2H28V47Zm-4-7v9H24V40Zm-4,6v3H20V46Zm-4-4v7H16V42Zm-4,3v4H12V45Zm6.382,16H9a3,3,0,0,1-3-3V55H20.382a3.947,3.947,0,0,0,0,6ZM23,60a2,2,0,1,1,2-2A2,2,0,0,1,23,60Zm2.618,1a3.947,3.947,0,0,0,0-6H30v3a4.948,4.948,0,0,0,1.026,3ZM30,26v3.638a8.9,8.9,0,0,1-6,3.307V24a1,1,0,0,0-1-1H14.056a9,9,0,0,1,17.752-.816A4.97,4.97,0,0,0,30,26ZM58,58a3,3,0,0,1-3,3H35a3,3,0,0,1-3-3V26a3,3,0,0,1,3-3H55a3,3,0,0,1,3,3Z"></path><path d="M55 25H35a1 1 0 00-1 1v8a1 1 0 001 1H55a1 1 0 001-1V26A1 1 0 0055 25zm-1 8H36V27H54zM55 49H51a1 1 0 00-1 1v8a1 1 0 001 1h4a1 1 0 001-1V50A1 1 0 0055 49zm-1 8H52V51h2zM55 37H51a1 1 0 00-1 1v8a1 1 0 001 1h4a1 1 0 001-1V38A1 1 0 0055 37zm-1 8H52V39h2zM39 37H35a1 1 0 00-1 1v4a1 1 0 001 1h4a1 1 0 001-1V38A1 1 0 0039 37zm-1 4H36V39h2zM47 37H43a1 1 0 00-1 1v4a1 1 0 001 1h4a1 1 0 001-1V38A1 1 0 0047 37zm-1 4H44V39h2zM39 45H35a1 1 0 00-1 1v4a1 1 0 001 1h4a1 1 0 001-1V46A1 1 0 0039 45zm-1 4H36V47h2zM47 45H43a1 1 0 00-1 1v4a1 1 0 001 1h4a1 1 0 001-1V46A1 1 0 0047 45zm-1 4H44V47h2zM39 53H35a1 1 0 00-1 1v4a1 1 0 001 1h4a1 1 0 001-1V54A1 1 0 0039 53zm-1 4H36V55h2zM47 53H43a1 1 0 00-1 1v4a1 1 0 001 1h4a1 1 0 001-1V54A1 1 0 0047 53zm-1 4H44V55h2zM20 38a1 1 0 001-1V27a1 1 0 00-1-1H10a1 1 0 00-1 1A11.013 11.013 0 0020 38zM19 28v7.944A9.016 9.016 0 0111.056 28z"></path></svg>