<svg xmlns="http://www.w3.org/2000/svg" width="32" height="32" id="business"><g color="#000" font-family="sans-serif" font-weight="400"><path fill="#2b4255" style="line-height:normal;text-indent:0;text-align:start;text-decoration-line:none;text-decoration-style:solid;text-decoration-color:#000;text-transform:none;block-progression:tb;isolation:auto;mix-blend-mode:normal" d="M7.826 1032.772a2.982 2.982 0 0 0-2.976 2.978c0 .043.013.079.015.121H1.637a.5.5 0 0 0-.5.5v3.803a.5.5 0 0 0 .625.484c.171-.044.333-.07.494-.07 1.103 0 1.976.874 1.976 1.979a1.963 1.963 0 0 1-1.976 1.978c-.16 0-.323-.026-.494-.07a.5.5 0 0 0-.625.485v3.804a.5.5 0 0 0 .5.5h3.228c-.002.042-.015.076-.015.12a2.982 2.982 0 0 0 2.976 2.978 2.98 2.98 0 0 0 2.975-2.979c0-.043-.014-.077-.016-.119h3.229a.5.5 0 0 0 .5-.5v-3.804a.5.5 0 0 0-.625-.485c-.172.044-.334.07-.494.07a1.961 1.961 0 0 1-1.975-1.978c0-1.105.872-1.979 1.975-1.979.16 0 .322.026.494.07a.5.5 0 0 0 .625-.484v-3.805a.5.5 0 0 0-.508-.49l.008-.01h-3.229c.002-.043.016-.077.016-.121a2.98 2.98 0 0 0-2.975-2.979zm0 1a1.961 1.961 0 0 1 1.904 2.474.5.5 0 0 0 .485.625h3.299v2.734c-.042 0-.076-.015-.12-.015a2.98 2.98 0 0 0-2.974 2.978 2.98 2.98 0 0 0 2.975 2.978c.043 0 .077-.014.119-.016v2.735h-3.3a.5.5 0 0 0-.484.625 1.961 1.961 0 0 1-1.904 2.473 1.963 1.963 0 0 1-1.976-1.979c0-.161.026-.324.07-.496a.5.5 0 0 0-.484-.623h-3.3v-2.735c.043 0 .077.016.12.016a2.982 2.982 0 0 0 2.976-2.978 2.982 2.982 0 0 0-2.976-2.979c-.043 0-.077.014-.12.016v-2.732h3.3a.5.5 0 0 0 .484-.625 1.98 1.98 0 0 1-.07-.496c0-1.105.874-1.979 1.976-1.979z" overflow="visible" transform="translate(0 -1020.362)"></path><path fill="#f05542" style="line-height:normal;text-indent:0;text-align:start;text-decoration-line:none;text-decoration-style:solid;text-decoration-color:#000;text-transform:none;block-progression:tb;isolation:auto;mix-blend-mode:normal" d="M14.03 1035.871a.5.5 0 0 0-.5.5v3.232c-.043 0-.077-.015-.12-.015a2.98 2.98 0 0 0-2.974 2.978 2.98 2.98 0 0 0 2.974 2.978c.043 0 .078-.014.12-.016v3.235a.5.5 0 0 0 .5.5h3.798a.5.5 0 0 0 .485-.625 1.97 1.97 0 0 1-.07-.494c0-1.106.873-1.979 1.976-1.979a1.961 1.961 0 0 1 1.904 2.475.5.5 0 0 0 .484.623h3.8l-.007-.01a.5.5 0 0 0 .506-.488.5.5 0 0 0 0-.01v-3.235c.042 0 .076.016.12.016a2.98 2.98 0 0 0 2.974-2.978 2.98 2.98 0 0 0-2.975-2.979c-.043 0-.077.014-.119.016v-3.232a.5.5 0 0 0-.5-.5h-3.799a.5.5 0 0 0-.484.625 1.961 1.961 0 0 1-1.904 2.473 1.963 1.963 0 0 1-1.977-1.98 2 2 0 0 1 .07-.495.5.5 0 0 0-.484-.623H14.03zm.5 1h2.728c-.002.042-.016.076-.016.12a2.983 2.983 0 0 0 2.977 2.978 2.98 2.98 0 0 0 2.974-2.979c0-.043-.013-.077-.015-.119h2.728v3.303a.5.5 0 0 0 .625.484c.172-.044.334-.07.494-.07 1.103 0 1.975.874 1.975 1.979a1.96 1.96 0 0 1-1.975 1.978c-.16 0-.322-.026-.494-.07a.5.5 0 0 0-.625.485v3.304h-2.728c.002-.042.015-.076.015-.119a2.98 2.98 0 0 0-2.974-2.978 2.983 2.983 0 0 0-2.977 2.978c0 .043.014.077.016.12h-2.729v-3.305a.5.5 0 0 0-.625-.483 1.96 1.96 0 0 1-2.469-1.91c0-1.105.872-1.979 1.975-1.979.16 0 .325.026.496.07a.5.5 0 0 0 .623-.484v-3.303z" overflow="visible" transform="translate(0 -1020.362)"></path><path fill="#25b39e" style="line-height:normal;text-indent:0;text-align:start;text-decoration-line:none;text-decoration-style:solid;text-decoration-color:#000;text-transform:none;block-progression:tb;isolation:auto;mix-blend-mode:normal" d="M20.291 1020.361a2.982 2.982 0 0 0-2.975 2.98c0 .044.014.078.016.12h-3.228a.5.5 0 0 0-.5.5v3.803a.5.5 0 0 0 .623.484c.171-.044.333-.07.494-.07 1.102 0 1.976.875 1.976 1.98a1.963 1.963 0 0 1-1.976 1.979c-.161 0-.323-.026-.494-.07a.5.5 0 0 0-.623.484v3.803c0 .276.223.61.5.61h3.166c-.003.042-.016.076-.016.119a2.954 2.954 0 0 0 2.959 2.963c1.64 0 2.99-1.431 2.99-3.073 0-.043-.008-.04-.01-.082l3.286-.039a.5.5 0 0 0 .5-.5v-3.802a.5.5 0 0 0-.624-.485c-.171.044-.335.07-.496.07a1.963 1.963 0 0 1-1.974-1.98c0-1.105.872-1.979 1.974-1.979.161 0 .325.026.496.07a.5.5 0 0 0 .624-.484v-3.803a.5.5 0 0 0-.5-.5H23.25c.002-.042.016-.076.016-.119a2.983 2.983 0 0 0-2.975-2.98zm0 1a1.963 1.963 0 0 1 1.904 2.477.5.5 0 0 0 .485.623h3.299v2.732c-.042 0-.077-.016-.12-.016a2.98 2.98 0 0 0-2.974 2.979 2.983 2.983 0 0 0 2.974 2.98c.043 0 .078-.014.12-.016v2.733h-3.362c-.327 0-.605.308-.523.625.044.17.07.334.07.496 0 1.105-.833 1.978-1.935 1.978a1.961 1.961 0 0 1-1.905-2.474.5.5 0 0 0-.486-.625h-3.234v-2.733c.041 0 .074.016.117.016a2.982 2.982 0 0 0 2.976-2.978 2.984 2.984 0 0 0-2.976-2.98c-.043 0-.076.013-.117.015v-2.732H17.9a.5.5 0 0 0 .485-.625 1.959 1.959 0 0 1 1.906-2.475z" overflow="visible" transform="translate(0 -1020.362)"></path></g></svg>