<svg xmlns="http://www.w3.org/2000/svg" enable-background="new 0 0 512 512" viewBox="0 0 512 512" id="consumer"><path fill="#ffe177" fill-rule="evenodd" d="M287.419,58.335c11.742,3.002,22.824,7.651,32.99,13.68l41.295-29.898l33.043,33.043l-29.899,41.295
				c6.029,10.166,10.675,21.249,13.678,32.989l50.327,8.056v46.73l-50.325,8.055c-3.002,11.742-7.651,22.825-13.681,32.99
				l29.898,41.295l-33.043,33.043l-41.295-29.899c-10.166,6.029-21.249,10.675-32.989,13.678l-8.056,50.327h-46.73l-8.055-50.325
				c-11.742-3.002-22.825-7.651-32.99-13.681l-41.295,29.898l-33.043-33.043l29.899-41.295
				c-6.029-10.166-10.675-21.249-13.678-32.99l-50.327-8.056v-46.73l50.328-8.056c3.002-11.741,7.648-22.823,13.677-32.989
				L117.251,75.16l33.043-33.043l41.293,29.897c10.167-6.029,21.25-10.677,32.992-13.679l8.055-50.325h46.73L287.419,58.335z" clip-rule="evenodd"></path><path fill="#ffc338" fill-rule="evenodd" d="M363.403,212.286c-3.002,11.741-7.651,22.824-13.68,32.99l29.898,41.295l-26.69,26.69l8.774,6.353
				l33.043-33.042l-29.898-41.295c6.03-10.166,10.679-21.249,13.68-32.99l50.325-8.056v-46.73l-50.327-8.056
				c-3.004-11.74-7.65-22.823-13.678-32.989l29.899-41.296l-33.043-33.043l-8.774,6.353l26.69,26.69l-29.899,41.296
				c6.029,10.166,10.675,21.249,13.679,32.989l50.327,8.056v46.73L363.403,212.286z" clip-rule="evenodd"></path><circle cx="255.999" cy="180.866" r="74.795" fill="#eceff1" fill-rule="evenodd" clip-rule="evenodd" transform="rotate(-45.001 255.998 180.87)"></circle><path fill="#d1d1d6" fill-rule="evenodd" d="M255.999,106.071c1.681,0,3.347,0.061,5,0.17c-38.976,2.573-69.796,34.997-69.796,74.625
				c0,39.628,30.819,72.052,69.796,74.625c-1.653,0.109-3.32,0.17-5,0.17c-41.308,0-74.796-33.487-74.796-74.795
				C181.204,139.557,214.691,106.071,255.999,106.071z" clip-rule="evenodd"></path><g><path fill="#6cf5c2" fill-rule="evenodd" d="M298.272,373.882v121.521c0,4.742-3.868,8.61-8.61,8.61h-67.327c-4.742,0-8.61-3.868-8.61-8.61
				l0.001-121.521c-17.095,0-31.082-13.363-31.082-29.697V255.11c0-16.334,14.577-25.453,31.082-29.698
				c28.609-7.358,56.767-6.892,84.545,0c16.544,4.104,31.082,13.368,31.082,29.698v89.074
				C329.354,360.515,315.367,373.882,298.272,373.882z" clip-rule="evenodd"></path><path fill="#00e499" fill-rule="evenodd" d="M289.662,373.882c17.095,0,31.082-13.367,31.082-29.697V255.11c0-16.329-14.538-25.593-31.082-29.698
				c-12.7-3.151-25.479-4.957-38.344-5.288c15.778-0.408,31.426,1.436,46.955,5.288c16.544,4.105,31.082,13.368,31.082,29.698
				v89.074c0,16.33-13.987,29.697-31.082,29.697H289.662z" clip-rule="evenodd"></path><path fill="#00e499" fill-rule="evenodd" d="M298.272,373.882v6.888c-3.804,0-6.888-3.084-6.888-6.888V275.51c0-3.804,3.084-6.888,6.888-6.888
				c3.804,0,6.888,3.084,6.888,6.888v97.631C302.943,373.625,300.637,373.882,298.272,373.882L298.272,373.882z M213.726,380.77
				v-6.888c-2.365,0-4.67-0.257-6.888-0.741V275.51c0-3.804,3.084-6.888,6.888-6.888c3.804,0,6.888,3.084,6.888,6.888v98.372
				C220.614,377.686,217.53,380.77,213.726,380.77z" clip-rule="evenodd"></path><path fill="#a79ba7" fill-rule="evenodd" d="M298.272,373.882v121.522c0,4.742-3.868,8.61-8.61,8.61h-67.327c-4.742,0-8.61-3.868-8.61-8.61
				l0.001-121.522H298.272z" clip-rule="evenodd"></path><path fill="#837683" fill-rule="evenodd" d="M298.272 373.882v121.522c0 4.742-3.868 8.61-8.61 8.61h-8.61c4.742 0 8.61-3.868 8.61-8.61V373.882H298.272zM264.05 504.013h-13.776V397.031c0-3.804 3.084-6.888 6.888-6.888 3.804 0 6.888 3.084 6.888 6.888V504.013z" clip-rule="evenodd"></path><path fill="#f6dccd" fill-rule="evenodd" d="M255.999,138.091c18.02,0,32.629,10.27,32.629,33.954c0,23.684-14.609,42.885-32.629,42.885
				c-18.021,0-32.629-19.201-32.629-42.885C223.369,148.361,237.978,138.091,255.999,138.091z" clip-rule="evenodd"></path><path fill="#f1cbbc" fill-rule="evenodd" d="M255.999,138.091c18.02,0,32.63,10.27,32.63,33.954c0,23.684-14.609,42.884-32.63,42.884
				c-1.46,0-2.896-0.128-4.305-0.372c15.986-2.77,28.325-20.747,28.325-42.512c0-21.766-12.339-32.202-28.325-33.749
				C253.102,138.159,254.539,138.091,255.999,138.091z" clip-rule="evenodd"></path></g><path fill-rule="evenodd" d="M420.848,197.41l-43.588,6.968c-3.142,0.514-5.689,2.831-6.482,5.921
		c-2.769,10.841-7.081,21.23-12.809,30.892c-1.628,2.741-1.467,6.19,0.401,8.77l25.896,35.77l-23.396,23.4l-23.523-17.031v-36.987
		c0-10.662-4.77-19.801-13.597-26.703c9.747-13.87,15.05-30.43,15.05-47.551c0-45.649-37.153-82.792-82.802-82.792
		c-45.649,0-82.802,37.143-82.802,82.792c0,17.121,5.303,33.681,15.04,47.551c-8.888,6.869-13.587,15.951-13.587,26.703v36.987
		l-23.523,17.031l-23.4-23.4l25.901-35.77c1.873-2.581,2.029-6.029,0.401-8.77c-5.718-9.652-10.03-20.051-12.809-30.892
		c-0.793-3.09-3.331-5.407-6.482-5.921L91.15,197.41v-33.09l43.587-6.978c3.152-0.5,5.704-2.831,6.482-5.921
		c2.779-10.841,7.091-21.23,12.809-30.892c1.628-2.736,1.472-6.19-0.401-8.77l-25.901-35.77l23.4-23.386l35.77,25.887
		c2.581,1.873,6.029,2.033,8.77,0.401c9.662-5.718,20.051-10.03,30.892-12.809c3.09-0.793,5.421-3.331,5.921-6.478l6.978-43.592
		h33.081l6.978,43.592c0.5,3.147,2.831,5.685,5.921,6.478c10.841,2.769,21.23,7.081,30.892,12.809
		c2.741,1.632,6.19,1.472,8.77-0.401l35.77-25.887l23.396,23.386l-25.896,35.77c-1.868,2.581-2.029,6.034-0.401,8.77
		c5.718,9.662,10.03,20.051,12.809,30.901c0.793,3.081,3.331,5.411,6.482,5.911l43.588,6.978V197.41L420.848,197.41z
		 M255.999,206.93c13.351,0,24.627-15.97,24.627-34.879c0-21.452-13.384-25.962-24.627-25.962c-11.242,0-24.631,4.51-24.631,25.962
		C231.368,190.961,242.648,206.93,255.999,206.93L255.999,206.93z M189.2,180.86c0,14.413,4.647,28.331,13.158,39.799
		c2.92-1.127,6.039-2.128,9.383-2.986c6.907-1.783,13.866-3.123,20.876-4.052c-10.417-9.219-17.248-24.41-17.248-41.569
		c0-13.332,4.18-24.301,12.092-31.699c7.166-6.714,17.036-10.261,28.538-10.261c11.502,0,21.372,3.548,28.538,10.261
		c7.912,7.398,12.091,18.366,12.091,31.699c0,17.196-6.86,32.43-17.328,41.639c6.958,0.92,13.917,2.232,20.9,3.958
		c3.359,0.84,6.52,1.831,9.459,2.982c8.502-11.469,13.139-25.382,13.139-39.771c0-36.827-29.967-66.79-66.799-66.79
		C219.172,114.07,189.2,144.033,189.2,180.86L189.2,180.86z M321.35,342.789v-87.675c0-13.682-15.658-19.612-24.999-21.933
		c-27.26-6.761-54.382-6.77-80.632-0.019c-11.441,2.939-25.07,9.138-25.07,21.952v87.675c0,9.322,6.279,17.291,15.083,20.362
		v-79.032c0-4.416,3.576-7.997,7.997-7.997c4.421,0,8.001,3.581,8.001,7.997v211.89h27.429v-90.369c0-4.421,3.581-8.001,8.002-8.001
		c4.42,0,8.001,3.581,8.001,8.001v90.369h25.108v-211.89c0-4.416,3.581-7.997,8.001-7.997c4.421,0,7.997,3.581,7.997,7.997v79.032
		C315.071,360.079,321.35,352.111,321.35,342.789L321.35,342.789z M430.119,149.6l-45.258-7.251
		c-2.623-8.789-6.152-17.281-10.521-25.367l26.887-37.129c2.302-3.185,1.953-7.572-0.825-10.351l-33.043-33.044
		c-2.779-2.779-7.161-3.128-10.351-0.816l-37.129,26.877c-8.086-4.378-16.578-7.898-25.368-10.516l-7.251-45.263
		c-0.618-3.878-3.963-6.728-7.902-6.728h-46.715c-3.935,0-7.279,2.85-7.902,6.728l-7.251,45.263
		c-8.789,2.618-17.291,6.138-25.367,10.516l-37.129-26.877c-3.194-2.312-7.572-1.963-10.351,0.816l-33.043,33.044
		c-2.779,2.779-3.128,7.166-0.826,10.351l26.887,37.129c-4.378,8.086-7.898,16.588-10.521,25.367L81.88,149.6
		c-3.883,0.618-6.732,3.968-6.732,7.902v46.73c0,3.93,2.85,7.28,6.732,7.898l45.258,7.242c2.623,8.789,6.152,17.291,10.521,25.368
		l-26.887,37.143c-2.302,3.18-1.953,7.567,0.826,10.337l33.043,33.053c2.779,2.77,7.157,3.119,10.351,0.816l19.659-14.229v30.93
		c0,18.154,13.347,33.34,31.081,36.912V504.01c0,2.123,0.84,4.161,2.335,5.661c1.5,1.5,3.543,2.34,5.661,2.34h84.543
		c4.421,0,7.997-3.581,7.997-8.001V379.701c17.729-3.571,31.081-18.758,31.081-36.912v-30.93l19.659,14.229
		c1.41,1.024,3.062,1.524,4.689,1.524c2.062,0,4.114-0.792,5.661-2.34l33.043-33.053c2.779-2.769,3.128-7.157,0.825-10.337
		l-26.887-37.143c4.378-8.077,7.898-16.578,10.53-25.368l45.248-7.242c3.878-0.618,6.732-3.968,6.732-7.898v-46.73
		C436.851,153.568,433.997,150.218,430.119,149.6z" clip-rule="evenodd"></path></svg>