<svg xmlns="http://www.w3.org/2000/svg" enable-background="new 0 0 64 64" viewBox="0 0 64 64" id="attract-money"><g><path d="M62.43,8.08c0-0.47-0.38-0.85-0.84-0.85H50.05c-0.47,0-0.85,0.38-0.85,0.85v4.74c0,0.01,0,0.01,0,0.01v4.99c0,0,0,0,0,0.01
		v12.41c0,3.39-0.65,6.7-1.93,9.84l-0.11,0.29l-0.59-0.41c-0.22-0.15-0.52-0.1-0.68,0.12c-3.83,5.22-9.56,8.18-15.31,7.91
		c-5.43-0.26-10.14-3.26-13.26-8.48c-0.08-0.12-0.2-0.2-0.34-0.23c-0.14-0.03-0.28,0.01-0.39,0.1l-0.11,0.09
		c-1.12-2.96-1.69-6.06-1.69-9.23V17.82c0,0,0,0,0-0.01v-4.98c0,0,0,0,0-0.01V8.08c0-0.47-0.38-0.85-0.84-0.85H2.41
		c-0.46,0-0.84,0.38-0.84,0.85v4.72c0,0.01,0,0.02,0,0.02v4.98c0,0.01,0,0.01,0,0.02c0,0.01,0,0.02,0,0.02v7.4
		c0,7.77,1.49,15.36,4.41,22.56l-0.73,0.58c-0.21,0.17-0.25,0.47-0.09,0.68C12.42,58.73,21.9,64,31.92,64
		c0.36,0,0.71-0.01,1.07-0.02c9.96-0.37,19.44-6.1,25.35-15.32c0.14-0.22,0.08-0.52-0.14-0.67l-0.19-0.14
		c2.94-7.21,4.43-14.82,4.43-22.61V8.08z M2.55,8.22H13.8v4.11H2.55V8.22z M2.55,13.32H13.8v4.01H2.55V13.32z M2.55,25.24v-6.93
		H13.8v11.93c0,3.39,0.64,6.71,1.87,9.87l-8.89,7.05C3.99,40.16,2.55,32.79,2.55,25.24z M32.96,63
		c-9.95,0.36-19.43-4.65-26.72-14.15l10.54-8.35c3.29,5.21,8.16,8.21,13.76,8.47c5.96,0.28,11.85-2.68,15.87-7.93l10.84,7.49
		C51.49,57.24,42.45,62.64,32.96,63z M61.46,25.24c0,7.56-1.44,14.95-4.29,22.04l-9.17-6.34l0.2-0.48c1.33-3.26,2-6.7,2-10.22V18.31
		h11.26V25.24z M61.46,17.33H50.2v-4.01h11.26V17.33z M61.46,12.33H50.2V8.22h11.26V12.33z"></path><path fill="#fb4a59" d="M57.24,48.53C51.49,57.24,42.45,62.64,32.96,63c-9.95,0.36-19.43-4.65-26.72-14.15l10.54-8.35
		c3.29,5.21,8.16,8.21,13.76,8.47c5.96,0.28,11.85-2.68,15.87-7.93L57.24,48.53z"></path><path fill="#1785f8" d="M15.67,40.11l-8.89,7.05c-2.8-7-4.24-14.37-4.24-21.92v-6.93H13.8v11.93C13.8,33.63,14.45,36.95,15.67,40.11z
		"></path><rect width="11.26" height="4.11" x="2.55" y="8.22" fill="#1785f8"></rect><path fill="#1785f8" d="M61.46,18.31v6.93c0,7.56-1.44,14.95-4.29,22.04l-9.17-6.34l0.2-0.48c1.33-3.26,2-6.7,2-10.22V18.31H61.46z"></path><rect width="11.26" height="4.11" x="50.2" y="8.22" fill="#1785f8"></rect><rect width="11.26" height="4.01" x="50.2" y="13.32" fill="#fb4a59"></rect><rect width="11.26" height="4.01" x="2.55" y="13.32" fill="#fb4a59"></rect><path d="M44.61,8.39c-0.69-1.63-1.68-3.1-2.91-4.34c-0.02-0.02-0.03-0.04-0.06-0.06C39.17,1.53,35.77,0,32.01,0
		c-1.88,0-3.67,0.38-5.3,1.07c-1.64,0.69-3.1,1.68-4.34,2.91C22.34,4,22.32,4.02,22.3,4.04c-2.47,2.48-3.99,5.88-3.99,9.64
		c0,0.01,0,0.01,0,0.01c0,3.76,1.52,7.16,3.98,9.64c0.02,0.02,0.04,0.04,0.06,0.06c2.48,2.46,5.89,3.99,9.65,3.99
		c3.73,0,7.12-1.51,9.59-3.95c0.01,0,0.01,0,0.01,0c2.52-2.49,4.08-5.93,4.08-9.73v-0.01C45.68,11.81,45.3,10.02,44.61,8.39z
		 M32.67,1.02c3.11,0.16,5.93,1.44,8.05,3.45c-0.22,0.39-0.53,0.69-0.92,0.9c-1.89-1.77-4.39-2.9-7.14-3.06
		C32.74,1.88,32.74,1.45,32.67,1.02z M31.65,1c0.12,0.43,0.11,0.86-0.01,1.29c-2.77,0.09-5.29,1.17-7.22,2.89
		c-0.24-0.36-0.54-0.67-0.9-0.92C25.68,2.31,28.53,1.09,31.65,1z M22.79,4.97c0.38,0.23,0.68,0.53,0.9,0.93
		c-1.78,1.89-2.91,4.38-3.07,7.14c-0.42-0.09-0.86-0.09-1.29-0.01C19.49,9.92,20.78,7.1,22.79,4.97z M22.58,22.18
		c-1.96-2.17-3.17-5.01-3.26-8.13c0.43-0.12,0.86-0.12,1.29,0.01c0.09,2.76,1.16,5.28,2.89,7.21
		C23.12,21.51,22.83,21.82,22.58,22.18z M31.34,26.36c-3.11-0.16-5.92-1.44-8.05-3.45c0.22-0.39,0.53-0.69,0.92-0.91
		c1.89,1.78,4.39,2.91,7.14,3.07C31.26,25.5,31.26,25.93,31.34,26.36z M31.99,24.12c-2.87,0-5.48-1.18-7.37-3.06
		c-1.88-1.89-3.05-4.5-3.05-7.37c0-5.75,4.67-10.43,10.43-10.43c5.75,0,10.42,4.68,10.42,10.43s-4.67,10.43-10.42,10.43
		C31.99,24.12,31.99,24.12,31.99,24.12z M32.36,26.38c-0.12-0.44-0.11-0.86,0.01-1.3c2.77-0.08,5.29-1.16,7.22-2.88
		c0.24,0.36,0.54,0.67,0.9,0.91C38.32,25.07,35.48,26.29,32.36,26.38z M41.22,22.41c-0.38-0.23-0.68-0.53-0.9-0.93
		c1.78-1.89,2.91-4.38,3.07-7.14c0.22,0.05,0.45,0.07,0.67,0.07c0.21,0,0.41-0.02,0.62-0.06C44.51,17.46,43.24,20.28,41.22,22.41z
		 M43.4,13.32c-0.09-2.77-1.16-5.28-2.89-7.22c0.37-0.24,0.67-0.54,0.92-0.9c1.96,2.17,3.17,5.01,3.26,8.13
		C44.26,13.45,43.83,13.45,43.4,13.32z"></path><path fill="#fcb44d" d="M32.01,3.26c-5.76,0-10.43,4.68-10.43,10.43c0,2.87,1.17,5.48,3.05,7.37c1.89,1.88,4.5,3.06,7.37,3.06
		c0,0,0,0,0.01,0c5.75,0,10.42-4.68,10.42-10.43S37.76,3.26,32.01,3.26z M32.01,13.2c1.77,0,3.21,1.44,3.21,3.21
		c0,1.6-1.19,2.92-2.72,3.16v1.17c0,0.27-0.22,0.49-0.49,0.49c-0.28,0-0.5-0.22-0.5-0.49v-1.17c-1.53-0.24-2.72-1.56-2.72-3.16
		c0-0.27,0.22-0.49,0.5-0.49c0.27,0,0.49,0.22,0.49,0.49c0,1.23,1,2.22,2.23,2.22c1.22,0,2.22-0.99,2.22-2.22
		c0-1.23-1-2.23-2.22-2.23c-1.78,0-3.22-1.44-3.22-3.21c0-1.6,1.19-2.92,2.72-3.16V6.64c0-0.27,0.22-0.49,0.5-0.49
		c0.27,0,0.49,0.22,0.49,0.49v1.17c1.53,0.24,2.72,1.56,2.72,3.16c0,0.27-0.22,0.49-0.5,0.49c-0.27,0-0.49-0.22-0.49-0.49
		c0-1.23-1-2.23-2.22-2.23c-1.23,0-2.23,1-2.23,2.23C29.78,12.2,30.78,13.2,32.01,13.2z"></path><path fill="#fb9927" d="M40.72,4.47c-0.22,0.39-0.53,0.69-0.92,0.9c-1.89-1.77-4.39-2.9-7.14-3.06c0.09-0.43,0.09-0.86,0.01-1.29
		C35.78,1.18,38.6,2.46,40.72,4.47z"></path><path fill="#fcb44d" d="M44.68,13.33c-0.43,0.12-0.86,0.12-1.29-0.01c-0.09-2.77-1.16-5.28-2.89-7.22c0.37-0.24,0.67-0.54,0.92-0.9
		C43.39,7.37,44.6,10.21,44.68,13.33z"></path><path fill="#fb9927" d="M44.67,14.35c-0.17,3.11-1.44,5.93-3.46,8.06c-0.38-0.23-0.68-0.53-0.9-0.93c1.78-1.89,2.91-4.38,3.07-7.14
		c0.22,0.05,0.45,0.07,0.67,0.07C44.27,14.41,44.47,14.39,44.67,14.35z"></path><path fill="#fcb44d" d="M40.49,23.11c-2.17,1.96-5.01,3.18-8.13,3.27c-0.12-0.44-0.11-0.86,0.01-1.3c2.77-0.08,5.29-1.16,7.22-2.88
		C39.83,22.56,40.12,22.87,40.49,23.11z"></path><path fill="#fb9927" d="M31.34,26.36c-3.11-0.16-5.92-1.44-8.05-3.45c0.22-0.39,0.53-0.69,0.92-0.91c1.89,1.78,4.39,2.91,7.14,3.07
		C31.26,25.5,31.26,25.93,31.34,26.36z"></path><path fill="#fcb44d" d="M23.49,21.27c-0.37,0.24-0.67,0.55-0.92,0.91c-1.96-2.17-3.17-5.01-3.26-8.13c0.43-0.12,0.86-0.12,1.29,0.01
		C20.7,16.82,21.77,19.34,23.49,21.27z"></path><path fill="#fb9927" d="M23.68,5.9c-1.78,1.89-2.91,4.38-3.07,7.14c-0.42-0.09-0.86-0.09-1.29-0.01c0.17-3.11,1.45-5.93,3.46-8.06
		C23.17,5.2,23.47,5.5,23.68,5.9z"></path><path fill="#fcb44d" d="M31.64,2.29c-2.77,0.09-5.29,1.17-7.22,2.89c-0.24-0.36-0.54-0.67-0.9-0.92c2.17-1.95,5.01-3.17,8.13-3.26
		C31.77,1.43,31.76,1.86,31.64,2.29z"></path><path d="M35.22,16.41c0,1.6-1.19,2.92-2.72,3.16v1.17c0,0.27-0.22,0.49-0.49,0.49c-0.28,0-0.5-0.22-0.5-0.49v-1.17
		c-1.53-0.24-2.72-1.56-2.72-3.16c0-0.27,0.22-0.49,0.5-0.49c0.27,0,0.49,0.22,0.49,0.49c0,1.23,1,2.22,2.23,2.22
		c1.22,0,2.22-0.99,2.22-2.22c0-1.23-1-2.23-2.22-2.23c-1.78,0-3.22-1.44-3.22-3.21c0-1.6,1.19-2.92,2.72-3.16V6.64
		c0-0.27,0.22-0.49,0.5-0.49c0.27,0,0.49,0.22,0.49,0.49v1.17c1.53,0.24,2.72,1.56,2.72,3.16c0,0.27-0.22,0.49-0.5,0.49
		c-0.27,0-0.49-0.22-0.49-0.49c0-1.23-1-2.23-2.22-2.23c-1.23,0-2.23,1-2.23,2.23c0,1.23,1,2.23,2.23,2.23
		C33.78,13.2,35.22,14.64,35.22,16.41z"></path></g></svg>