<svg xmlns="http://www.w3.org/2000/svg" width="210mm" height="210mm" viewBox="0 0 210 210" id="globe"><circle cx="105" cy="105" r="93.121" fill="#00e5ff" paint-order="stroke fill markers"></circle><path fill="#0cf" d="m 49.854144,30.044075 a 93.121445,93.121445 0 0 0 -37.97546,74.956145 93.121445,93.121445 0 0 0 93.121446,93.12145 93.121445,93.121445 0 0 0 76.9028,-40.61354 C 139.96827,167.15472 92.555949,159.54147 67.249981,129.39098 46.229595,104.3465 39.654099,62.951359 49.854144,30.044075 Z" paint-order="stroke fill markers"></path><path fill="#abc837" d="m 105.00013,11.878776 a 93.121445,93.121445 0 0 0 -12.100551,0.839225 c 0.93881,3.654289 5.27252,7.092768 3.97133,10.610205 -1.04369,2.821378 -4.77027,4.154421 -7.738542,4.643127 -3.993904,0.657569 -8.60257,-4.974278 -11.865943,-2.579687 -1.531411,1.123716 0.886358,4.394226 -0.516247,5.675106 -1.523832,1.391585 -5.025704,-1.703244 -6.190837,0 -1.875204,2.741258 5.387964,6.479894 3.611666,9.286255 -1.290906,2.039491 -5.577992,-1.250771 -7.222815,0.51573 -2.109397,2.265443 -2.449534,7.393752 0,9.286255 3.234711,2.499128 8.990313,-0.190295 11.865942,-3.095418 0.997616,-1.007848 0.04888,-3.104863 1.031979,-4.12688 2.980447,-3.098441 8.090319,-3.871821 12.381677,-3.611666 2.61455,0.158503 4.60686,2.961881 7.22281,3.095418 2.878981,0.146965 5.477891,-3.354934 8.254281,-2.57917 3.75499,1.049199 5.36203,5.679229 7.73854,8.770007 1.88973,2.457697 2.90323,5.612749 5.15938,7.739063 12.89996,12.157656 45.91554,26.826786 45.91554,26.826786 l 23.83679,-15.401644 a 93.121445,93.121445 0 0 0 -85.355,-55.892712 z"></path><path d="m 104.99454,10.290718 c -4.11647,0.01675 -8.229231,0.301851 -12.308601,0.853516 l -1.767574,0.240234 0.443364,1.728516 c 0.58602,2.2811 2.0193,4.117203 2.99609,5.769531 0.97679,1.652328 1.41666,2.831548 1.02344,3.894531 -0.33677,0.910368 -1.17416,1.704746 -2.39258,2.339844 -1.21842,0.635098 -2.75237,1.063044 -4.113283,1.287109 -1.18353,0.194861 -3.119637,-0.736967 -5.242187,-1.794922 -1.061275,-0.528977 -2.167037,-1.056527 -3.402344,-1.291015 -1.235307,-0.234488 -2.705474,-0.0867 -3.904297,0.792969 a 1.5875,1.5875 0 0 0 -0.339843,2.220703 1.5875,1.5875 0 0 0 2.21875,0.339843 c 0.432862,-0.317624 0.762144,-0.36183 1.433593,-0.234375 0.671449,0.127456 1.580076,0.516209 2.578125,1.013672 1.996099,0.994927 4.363459,2.548646 7.173828,2.085938 1.607357,-0.264641 3.418548,-0.746526 5.066408,-1.605469 1.64786,-0.858943 3.19542,-2.141727 3.90234,-4.052734 0.90797,-2.454451 -0.16811,-4.751489 -1.26758,-6.611328 -0.66312,-1.121732 -1.29324,-2.155103 -1.82226,-3.126953 3.23368,-0.35964 6.475851,-0.660376 9.730471,-0.673829 35.95769,3.37e-4 68.49659,21.060884 83.31836,53.730469 l -21.91016,14.15625 c -0.64718,-0.288911 -7.86581,-3.494674 -17.27148,-8.439453 -9.8164,-5.160706 -21.25536,-11.888888 -27.44532,-17.722656 -1.85843,-1.751482 -2.86751,-4.790069 -4.99023,-7.550782 -1.06017,-1.378802 -2.05522,-3.294661 -3.30859,-5.091796 -1.25338,-1.797135 -2.85786,-3.56856 -5.26172,-4.240235 -2.10811,-0.589037 -3.89738,0.416408 -5.29102,1.197266 -1.39364,0.780858 -2.53455,1.365685 -3.308591,1.326172 a 1.5875,1.5875 0 0 0 -1.66602,1.503906 1.5875,1.5875 0 0 0 1.50391,1.666016 c 2.104931,0.107451 3.703781,-0.987155 5.023441,-1.726563 1.31965,-0.739407 2.21648,-1.094929 2.88476,-0.908203 1.35112,0.377523 2.4287,1.445176 3.51172,2.998047 1.08302,1.552871 2.07819,3.498965 3.39453,5.210937 1.65674,2.154677 2.67621,5.42464 5.33008,7.925782 6.70999,6.323875 18.22816,13.009393 28.14453,18.222656 9.91637,5.213263 18.21484,8.90039 18.21484,8.90039 l 0.78516,0.347657 25.69141,-16.59961 -0.53907,-1.236328 C 176.75426,32.615313 142.66219,10.291071 105.0004,10.290718 h -0.004 z M 71.892975,28.958687 c -0.823032,-0.04606 -2.017532,0.294361 -2.644532,1.210937 -0.833374,1.218264 -0.606946,2.775136 -0.08594,3.81836 0.521008,1.043224 1.266906,1.89997 1.947265,2.714843 0.68036,0.814874 1.295628,1.586277 1.56836,2.121094 0.272732,0.534818 0.249752,0.525794 0.152344,0.679688 -0.0072,0.01136 0.193539,-0.04795 -0.117188,-0.04492 -0.310727,0.003 -0.936997,-0.117566 -1.648437,-0.289063 -0.711441,-0.171497 -1.511825,-0.38712 -2.408204,-0.425781 -0.896378,-0.03866 -2.05803,0.169758 -2.871093,1.042969 -1.43281,1.538804 -2.084372,3.69251 -2.134766,5.828125 -0.05039,2.135615 0.524286,4.404743 2.326172,5.796875 2.195854,1.69651 5.046059,1.546954 7.533203,0.730469 2.487144,-0.816486 4.793606,-2.311961 6.431641,-3.966797 1.063071,-1.073975 0.97003,-2.371858 0.980468,-3.152344 0.01044,-0.780486 0.129759,-1.054064 0.06836,-0.990234 2.443471,-2.540207 7.114933,-3.371003 11.140631,-3.126954 a 1.5875,1.5875 0 0 0 1.68164,-1.488281 1.5875,1.5875 0 0 0 -1.48828,-1.68164 c -4.557022,-0.27626 -10.105637,0.439034 -13.623054,4.095703 -1.044497,1.085846 -0.942753,2.372951 -0.953125,3.148437 -0.01037,0.775486 -0.127956,1.029018 -0.0625,0.962891 -1.237591,1.250284 -3.247778,2.551917 -5.166015,3.18164 -1.918238,0.629724 -3.562709,0.576053 -4.601563,-0.226562 -0.647645,-0.500369 -1.126437,-1.740962 -1.091797,-3.208984 0.03464,-1.468023 0.606618,-3.011645 1.283203,-3.738282 0.0093,-0.01004 -2.39e-4,-0.05286 0.410157,-0.03516 0.410396,0.0177 1.073485,0.164525 1.800781,0.339844 0.727296,0.175319 1.51626,0.385807 2.423828,0.376953 0.907569,-0.0089 2.12932,-0.421308 2.767578,-1.429688 0.79074,-1.249284 0.525068,-2.779184 -0.0059,-3.820312 -0.530927,-1.041128 -1.279992,-1.901608 -1.958985,-2.714844 -0.678992,-0.813236 -1.286997,-1.58121 -1.544921,-2.097656 -0.165915,-0.332213 -0.09868,-0.325981 -0.08594,-0.390625 0.252065,0.03954 0.615351,0.121722 1.121094,0.283203 0.59649,0.190456 1.278041,0.4308 2.076172,0.527344 0.798131,0.09654 1.886144,-3.54e-4 2.707031,-0.75 a 1.5875,1.5875 0 0 0 0.101562,-2.244141 1.5875,1.5875 0 0 0 -2.242187,-0.101562 c 0.05897,-0.05385 0.13791,-0.01751 -0.185547,-0.05664 -0.323457,-0.03913 -0.87709,-0.203993 -1.492187,-0.400391 -0.615098,-0.196397 -1.286344,-0.43245 -2.109375,-0.478515 z" color="#000" paint-order="stroke fill markers"></path><path fill="#abc837" d="m 19.644102,120.77755 c -0.611621,-0.0246 -1.210767,0.19739 -1.782837,0.89556 -0.500659,1.70972 -1.780188,2.27236 -3.565157,2.09238 -0.165471,-0.0549 -0.321926,-0.0852 -0.470773,-0.0951 a 93.121445,93.121445 0 0 0 20.568254,41.94473 c 0.146665,-0.39801 0.17884,-0.88214 0.04599,-1.41542 0.04299,-1.99763 -2.15663,-2.31025 -2.41949,-3.67626 0.08636,-1.95923 0.276404,-4.65099 1.668632,-5.83272 0.481653,-2.41098 2.193337,-4.26367 3.030822,-6.54275 1.106909,-2.2117 1.325891,-4.66849 1.609721,-7.08174 0.550185,-1.84476 0.273026,-3.96909 1.453658,-5.57279 1.490402,-2.3167 -0.602619,-4.15611 -2.262394,-5.36815 -2.309893,-0.68778 -3.484031,-2.94453 -5.06119,-4.39611 -1.755528,-1.07318 -1.32192,-3.91336 -3.42408,-4.64158 -1.679553,-0.17446 -4.548973,-0.87133 -5.336109,0.98031 -1.304419,0.0107 -2.709483,-1.2362 -4.055049,-1.29037 z"></path><path d="m 19.707428,119.19111 c -1.036447,-0.0417 -2.26231,0.48569 -3.074219,1.47656 l -0.205078,0.25 -0.08984,0.3086 c -0.161024,0.54988 -0.317521,0.68611 -0.541016,0.80859 -0.223494,0.12248 -0.651271,0.22002 -1.341796,0.15039 l 0.339843,0.0742 c -0.283938,-0.0943 -0.576006,-0.15461 -0.865234,-0.17383 l -2.078125,-0.13672 0.417969,2.04102 c 3.234868,15.76632 10.435482,30.44877 20.919922,42.66015 l 1.759765,2.04883 0.933594,-2.53516 c 0.240115,-0.6516 0.23068,-1.39229 0.08789,-2.12695 -0.06112,-1.46593 -0.955826,-2.56577 -1.589844,-3.11328 -0.616106,-0.53204 -0.734006,-0.69475 -0.742188,-0.64648 0.04449,-0.87762 0.103258,-1.82464 0.277344,-2.62305 0.195083,-0.89471 0.52891,-1.5248 0.798828,-1.75391 l 0.421875,-0.35742 0.107422,-0.54101 c 0.365387,-1.829 1.92979,-3.59578 2.916016,-6.20704 1.251601,-2.53794 1.468139,-5.17967 1.746093,-7.54296 l -0.05664,0.26757 c 0.687312,-2.30454 0.497443,-4.11481 1.210937,-5.08398 l 0.0293,-0.041 0.02734,-0.041 c 1.031574,-1.60349 0.83102,-3.52691 0.07422,-4.7793 -0.756801,-1.25239 -1.852264,-2.08631 -2.734375,-2.73047 l -0.220703,-0.16211 -0.263672,-0.0781 c -1.540624,-0.45873 -2.547914,-2.30204 -4.439453,-4.04297 l -0.113282,-0.10352 -0.132812,-0.082 c -0.29641,-0.1812 -0.539805,-0.69545 -0.935547,-1.68554 -0.395742,-0.9901 -1.110721,-2.51746 -2.796875,-3.10157 l -0.173828,-0.0605 -0.181641,-0.0176 c -0.71613,-0.0744 -1.932142,-0.32192 -3.222656,-0.27735 -0.645257,0.0223 -1.335216,0.11349 -2.027344,0.44141 -0.261487,0.12389 -0.407179,0.46626 -0.646484,0.66992 -0.240701,-0.0649 -0.466008,-0.1123 -0.947266,-0.33593 -0.675898,-0.31409 -1.508668,-0.77053 -2.648437,-0.81641 z m -0.126953,3.17187 c 0.205795,0.008 0.748371,0.20321 1.4375,0.52344 0.689128,0.32023 1.530685,0.77908 2.693359,0.76953 l 1.041016,-0.01 0.408203,-0.95703 c 0.0469,-0.11034 0.02868,-0.0878 0.148437,-0.14454 0.119756,-0.0567 0.398864,-0.12748 0.779297,-0.14062 0.672742,-0.0232 1.594086,0.12751 2.460938,0.23047 0.380318,0.14742 0.514611,0.38648 0.853515,1.23437 0.351875,0.88035 0.769399,2.32287 2.228516,3.21485 l -0.246094,-0.18555 c 1.189112,1.09443 2.498964,3.47788 5.212891,4.52344 0.771931,0.56548 1.547354,1.24948 1.876953,1.79492 0.332052,0.5495 0.431483,0.70476 -0.02734,1.41797 l 0.05664,-0.082 c -1.647768,2.23823 -1.28421,4.67557 -1.697266,6.06054 l -0.03906,0.13086 -0.01563,0.13672 c -0.287365,2.44331 -0.519295,4.69077 -1.453125,6.55664 l -0.03906,0.0801 -0.03125,0.084 c -0.653414,1.77817 -2.24849,3.6609 -2.929687,6.35547 -0.802568,0.8948 -1.255887,1.96461 -1.486329,3.02149 -0.08501,0.38988 -0.06894,0.71265 -0.11914,1.0957 -7.03416,-9.84678 -12.086417,-20.95346 -14.78711,-32.79101 0.486832,-0.0838 0.96568,-0.2161 1.416016,-0.46289 0.817614,-0.44808 1.400835,-1.24909 1.791016,-2.15625 0.281894,-0.33902 0.289518,-0.30792 0.466797,-0.30079 z" color="#000"></path><circle cx="105" cy="105" r="93.121" fill="none" stroke="#000" stroke-linecap="round" stroke-linejoin="round" stroke-width="3.288" paint-order="stroke fill markers"></circle><path fill="#abc837" d="m 52.502735,79.046072 c -1.191868,2.877423 -2.12634,6.370509 -1.031818,9.28635 0.983808,2.620896 3.91986,4.038119 6.190899,5.674991 1.436332,1.035249 2.884214,2.377435 4.643175,2.579542 3.73132,0.428732 7.141025,-2.41139 10.834075,-3.095451 5.771501,-1.069052 13.032709,-5.306654 17.540879,-1.547725 5.703954,4.755987 0.547844,14.913781 2.063634,22.184051 3.25214,15.59846 6.60755,31.8315 14.961341,45.39994 1.65757,2.69227 3.60001,6.12059 6.70681,6.7068 2.95123,0.55686 5.93384,-1.70495 8.25453,-3.61135 3.72306,-3.05843 4.92206,-8.38599 8.25454,-11.86589 3.14014,-3.27906 9.36991,-3.95698 10.83407,-8.25454 1.49328,-4.38303 -3.43828,-8.78643 -3.61136,-13.41361 -0.13741,-3.67372 0.25902,-7.63119 2.06364,-10.83407 2.27142,-4.03136 7.5946,-5.54558 10.31817,-9.28636 4.21375,-5.7875 5.46114,-13.256333 8.77044,-19.604512 1.39058,-2.667538 5.33748,-4.81161 4.64317,-7.738624 -2.81892,-11.883703 -20.06065,-14.082485 -30.9545,-19.604516 -8.40285,-4.25936 -16.90702,-10.874054 -26.31132,-10.318167 -5.45305,0.322328 -9.020751,7.096466 -14.445441,7.738625 -7.414556,0.877714 -14.321456,-7.006219 -21.668146,-5.674993 -3.521113,0.638029 -6.716965,3.260278 -8.770441,6.190902 -2.250335,3.211574 -1.317716,7.854573 -3.095448,11.349981 -1.497538,2.944487 -4.926733,4.686659 -6.190899,7.738626 z"></path><path d="m 106.57852,50.118843 c -3.3601,0.198615 -5.87362,2.275903 -8.134761,4.097656 -2.26115,1.821754 -4.29681,3.39919 -6.40235,3.648438 -3.099083,0.366861 -6.4088,-1.16491 -9.992184,-2.865235 -3.583384,-1.700324 -7.473215,-3.574125 -11.773438,-2.794921 -4.106166,0.744041 -7.544823,3.641711 -9.787109,6.841796 -1.390622,1.984632 -1.723243,4.23555 -1.998047,6.267579 -0.274804,2.032028 -0.503632,3.87888 -1.212891,5.273437 -0.584158,1.148583 -1.664934,2.21965 -2.880859,3.417969 -1.215925,1.198319 -2.575904,2.537411 -3.361328,4.433594 -1.253428,3.026042 -2.396371,6.866479 -1.050782,10.451171 a 1.5875,1.5875 0 0 0 2.044922,0.927735 1.5875,1.5875 0 0 0 0.927735,-2.042969 c -0.843453,-2.246983 -0.118587,-5.392296 1.011718,-8.121094 0.478741,-1.155781 1.467154,-2.21484 2.65625,-3.386718 1.189097,-1.171879 2.569044,-2.444333 3.482422,-4.240235 1.068472,-2.100847 1.263394,-4.322849 1.529297,-6.289062 0.265903,-1.966213 0.591461,-3.642201 1.451172,-4.869141 1.864662,-2.661157 4.817854,-5.009 7.753906,-5.541016 3.04646,-0.55202 6.285333,0.851612 9.845703,2.541016 3.560371,1.689404 7.4111,3.65929 11.726563,3.148438 3.31915,-0.392911 5.77935,-2.521691 8.021481,-4.328125 2.24214,-1.806434 4.23714,-3.278631 6.33008,-3.402344 8.6075,-0.508788 16.89124,5.786655 25.5,10.15039 5.67239,2.8753 12.71212,4.797099 18.57031,7.447266 5.8582,2.650168 10.31183,5.851411 11.5586,11.107422 0.17115,0.721509 -0.21206,1.429631 -1.19336,2.558594 -0.9813,1.128962 -2.41517,2.354981 -3.31445,4.080078 -3.46965,6.655765 -4.72557,14.021678 -8.64454,19.404298 -1.1321,1.55493 -2.96937,2.79634 -4.94726,4.16211 -1.97789,1.36576 -4.11638,2.87561 -5.4707,5.2793 -2.03034,3.60348 -2.41085,7.84164 -2.26758,11.67187 0.10689,2.85758 1.55042,5.26613 2.58594,7.42578 1.03551,2.15965 1.63163,3.88309 1.10937,5.41602 -0.51865,1.52231 -1.97027,2.54148 -4.02148,3.61523 -2.05121,1.07375 -4.56205,2.07587 -6.45704,4.05469 -1.88035,1.96354 -3.05708,4.30042 -4.2246,6.42383 -1.16752,2.1234 -2.31386,4.01721 -3.89063,5.3125 -2.28106,1.87384 -4.96303,3.6548 -6.95312,3.27929 -1.05856,-0.19973 -2.0286,-0.91747 -2.98243,-2.03515 -0.95382,-1.11768 -1.82465,-2.57876 -2.66601,-3.94532 -8.15692,-13.24867 -11.507251,-29.29033 -14.759771,-44.89062 -0.65433,-3.13843 0.16571,-7.39039 0.56446,-11.56055 0.19937,-2.08508 0.28374,-4.164669 -0.10938,-6.156247 -0.39312,-1.991578 -1.32683,-3.920957 -3.05664,-5.363281 -2.801414,-2.335829 -6.394908,-2.128121 -9.673828,-1.363281 -3.27892,0.76484 -6.538253,2.082488 -9.171875,2.570312 -2.147364,0.397755 -4.010099,1.346088 -5.72461,2.060547 -1.71451,0.714459 -3.222424,1.180306 -4.638671,1.017578 -1.065273,-0.122401 -2.342684,-1.169147 -3.896485,-2.289062 a 1.5875,1.5875 0 0 0 -2.216797,0.359375 1.5875,1.5875 0 0 0 0.359375,2.214843 c 1.318861,0.950581 2.93798,2.587329 5.390625,2.869141 2.315069,0.266003 4.376226,-0.472755 6.222657,-1.242188 1.846431,-0.769432 3.536349,-1.582835 5.082031,-1.86914 3.137873,-0.581227 6.394811,-1.918119 9.316406,-2.59961 2.921595,-0.68149 5.211217,-0.712158 6.917969,0.710938 1.122164,0.935667 1.684853,2.059287 1.976563,3.537109 0.29171,1.477822 0.24969,3.282587 0.0625,5.240236 -0.37437,3.91529 -1.373171,8.37794 -0.511719,12.50976 3.251749,15.5966 6.613419,32.02198 15.16406,45.91016 0.81621,1.32571 1.74464,2.92375 2.95313,4.33984 1.20849,1.4161 2.7623,2.70728 4.81055,3.09375 3.91236,0.73822 7.19632,-2.00636 9.55664,-3.94531 2.14629,-1.76314 3.46038,-4.06137 4.65625,-6.23633 1.19586,-2.17495 2.2842,-4.24145 3.73632,-5.75781 1.24516,-1.30024 3.42198,-2.27814 5.63672,-3.4375 2.21475,-1.15936 4.60918,-2.6271 5.55469,-5.40234 0.97102,-2.8501 -0.15174,-5.51986 -1.25195,-7.81446 -1.10022,-2.29459 -2.2092,-4.40228 -2.27539,-6.17187 -0.13156,-3.5172 0.28047,-7.19187 1.85937,-9.99414 0.91709,-1.62767 2.57537,-2.89023 4.50781,-4.22461 1.93244,-1.33438 4.11948,-2.72041 5.71094,-4.90625 4.50853,-6.19237 5.74558,-13.766061 8.89453,-19.806641 0.49129,-0.942439 1.72832,-2.121182 2.89453,-3.462891 1.16622,-1.341709 2.40793,-3.169498 1.88477,-5.375 -1.57215,-6.62768 -7.14705,-10.466926 -13.33789,-13.267578 -6.19085,-2.800652 -13.22191,-4.739993 -18.44336,-7.386719 -8.19692,-4.154975 -16.92197,-11.089312 -27.12305,-10.486328 z" color="#000" paint-order="stroke fill markers"></path><path fill="#abc837" d="m 142.78669,59.441556 c -2.9722,2.609689 -2.00584,8.456936 0,11.86589 1.79577,3.051945 7.00725,2.44894 9.28635,5.159084 2.6953,3.205062 0.47754,9.812469 4.12727,11.865892 6.43771,3.622007 16.26171,0.390074 21.66814,-4.643175 4.06299,-3.782547 7.4303,-11.192369 4.64318,-15.993158 -4.79566,-8.260499 -18.46683,-4.96884 -27.85905,-6.706808 -3.92221,-0.725781 -8.86853,-4.17952 -11.86589,-1.547725 z"></path><path d="m 145.29532,56.884468 c -1.22036,0.04509 -2.51527,0.448919 -3.55664,1.363281 -1.99193,1.748981 -2.54111,4.40641 -2.4043,6.914063 0.13681,2.507653 0.93639,5.000813 2.08399,6.951172 1.26145,2.143857 3.50999,2.836673 5.35351,3.416015 1.84352,0.579343 3.36734,1.10448 4.08594,1.958985 0.86374,1.027104 1.09685,3.136173 1.3418,5.505859 0.12247,1.184843 0.27038,2.415813 0.70312,3.609375 0.43275,1.193562 1.23013,2.387835 2.51953,3.113281 a 1.5875,1.5875 0 0 0 2.16211,-0.605468 1.5875,1.5875 0 0 0 -0.60547,-2.16211 c -0.53546,-0.301265 -0.82966,-0.704725 -1.09179,-1.427734 -0.26214,-0.723009 -0.41308,-1.729199 -0.5293,-2.853516 -0.23243,-2.248633 -0.23876,-5.044701 -2.07031,-7.222656 -1.5605,-1.855637 -3.78157,-2.383684 -5.5625,-2.943359 -1.78094,-0.559676 -3.036,-1.091916 -3.57032,-2 -0.85824,-1.458592 -1.5456,-3.593046 -1.65039,-5.513672 -0.10478,-1.920627 0.34982,-3.49281 1.33008,-4.353516 0.45731,-0.401533 0.90548,-0.551321 1.57813,-0.576172 0.67265,-0.02485 1.54248,0.132746 2.50781,0.419922 1.93066,0.574352 4.15665,1.649124 6.44336,2.072266 5.00794,0.926685 10.79531,0.515156 15.8125,0.927734 5.01719,0.412578 8.93989,1.531027 10.96289,5.015625 1.07613,1.85362 1.02413,4.416731 0.11719,7.066406 -0.90695,2.649675 -2.65556,5.278762 -4.46875,6.966797 a 1.5875,1.5875 0 0 0 -0.0801,2.244141 1.5875,1.5875 0 0 0 2.24219,0.08008 c 2.24979,-2.094505 4.21487,-5.060654 5.31054,-8.261719 1.09568,-3.201065 1.33599,-6.744242 -0.375,-9.691406 -2.77266,-4.775893 -8.08386,-6.142776 -13.44922,-6.583984 -5.36535,-0.441209 -11.10986,-0.07544 -15.49414,-0.886719 -1.63549,-0.302638 -3.8448,-1.316175 -6.11718,-1.992188 -1.1362,-0.338006 -2.30894,-0.595866 -3.5293,-0.550781 z m 28.27148,28.642578 a 1.5875,1.5875 0 0 0 -1.20898,0.121094 c -1.67034,0.894476 -3.49075,1.610361 -5.32227,2.068359 -1.83151,0.458001 -3.67343,0.657606 -5.38867,0.542969 a 1.5875,1.5875 0 0 0 -1.68945,1.476563 1.5875,1.5875 0 0 0 1.47851,1.691406 c 2.10633,0.140775 4.2661,-0.104469 6.3711,-0.63086 2.105,-0.526388 4.15543,-1.335687 6.04883,-2.349609 a 1.5875,1.5875 0 0 0 0.65039,-2.148437 1.5875,1.5875 0 0 0 -0.93946,-0.771485 z" color="#000" paint-order="stroke fill markers"></path></svg>