<svg xmlns="http://www.w3.org/2000/svg" enable-background="new 0 0 64 64" viewBox="0 0 64 64" id="location-history"><path d="M45.72,21.91c-0.01-3.63-1.42-7.04-3.97-9.62c-0.01-0.01-0.03-0.03-0.04-0.04c-0.01-0.01-0.01-0.02-0.02-0.02
		c-2.58-2.6-6.03-4.02-9.7-4.02c-1.07,0-2.12,0.12-3.1,0.35c0,0,0,0-0.01,0c-2.49,0.57-4.77,1.83-6.59,3.65l-0.01,0.01l-0.01,0.01
		c-2.59,2.59-4.01,6.03-4.01,9.7c0,2.06,0.43,4.03,1.31,5.86c0.68,1.44,1.59,2.73,2.69,3.82c0.02,0.02,0.04,0.04,0.06,0.06
		c0.01,0.01,0.02,0.01,0.02,0.02c2.58,2.55,5.99,3.96,9.62,3.97c0.01,0,0.02,0.01,0.03,0.01c0.01,0,0.02-0.01,0.02-0.01
		c3.65-0.01,7.07-1.42,9.65-3.99c0.01-0.01,0.03-0.02,0.04-0.03s0.02-0.03,0.03-0.04c2.57-2.58,3.99-6,3.99-9.65
		c0,0,0.01-0.01,0.01-0.02S45.72,21.92,45.72,21.91z M43.27,22.43h1.45c-0.12,3.06-1.3,5.92-3.38,8.15l-1.02-1.01
		c-0.19-0.2-0.5-0.2-0.69,0c-0.2,0.19-0.2,0.5,0,0.69l1.01,1.01c-2.24,2.09-5.09,3.27-8.15,3.39v-1.45c0-0.27-0.22-0.49-0.49-0.49
		c-0.28,0-0.49,0.23-0.49,0.49v1.45c-3.05-0.12-5.91-1.31-8.14-3.39l1-1.01c0.2-0.2,0.2-0.5,0-0.7c-0.19-0.19-0.5-0.19-0.7,0
		l-1.01,1.02c-0.88-0.95-1.61-2.02-2.19-3.21c-0.74-1.55-1.12-3.21-1.19-4.94h1.45c0.27,0,0.49-0.22,0.49-0.49s-0.23-0.49-0.49-0.49
		h-1.45c0.12-3.06,1.3-5.92,3.38-8.15l1.02,1.01c0.1,0.1,0.22,0.15,0.34,0.15c0.13,0,0.26-0.05,0.35-0.15c0.19-0.19,0.19-0.5,0-0.69
		l-1.03-1.02c1.63-1.52,3.61-2.58,5.77-3.07c0.01,0,0.01,0,0.01,0c0.76-0.18,1.57-0.27,2.38-0.31v1.45c0,0.27,0.22,0.49,0.49,0.49
		c0.14,0,0.26-0.06,0.34-0.15c0.1-0.09,0.15-0.22,0.15-0.35V9.22c3.06,0.12,5.92,1.3,8.15,3.38l-1.01,1.01
		c-0.2,0.2-0.2,0.51-0.01,0.7c0.1,0.1,0.23,0.15,0.35,0.15c0.13,0,0.25-0.05,0.34-0.15l1.01-1c2.09,2.24,3.27,5.09,3.39,8.14h-1.45
		c-0.27,0-0.49,0.22-0.49,0.49S43,22.43,43.27,22.43z"></path><path d="M38.91,21.59H33.6c-0.17-0.52-0.58-0.95-1.11-1.1v-6.27c0-0.28-0.23-0.49-0.49-0.49c-0.28,0-0.49,0.22-0.49,0.49v6.27
		c-0.53,0.16-0.95,0.57-1.11,1.1h-0.73c-0.28,0-0.49,0.23-0.49,0.49c0,0.28,0.22,0.49,0.49,0.49h0.73c0.16,0.53,0.57,0.95,1.11,1.11
		v0.73c0,0.28,0.22,0.49,0.49,0.49c0.27,0,0.49-0.22,0.49-0.49V23.7c0.53-0.17,0.96-0.58,1.11-1.12h5.31c0.28,0,0.49-0.22,0.49-0.49
		C39.4,21.82,39.18,21.59,38.91,21.59z M32,22.79c-0.39-0.01-0.7-0.31-0.7-0.69c0-0.01,0-0.01,0-0.02c0,0,0,0,0-0.01
		c0.01-0.37,0.31-0.67,0.69-0.69c0,0,0,0,0.01,0H32c0.38,0.01,0.69,0.32,0.69,0.71C32.69,22.47,32.38,22.79,32,22.79z"></path><path d="M43.26,3.19C39.97,1.16,36.11,0,32,0C20.11,0,10.44,9.67,10.44,21.55c0,11.66,20.28,40.99,21.15,42.23
		C31.68,63.92,31.84,64,32,64c0.16,0,0.32-0.08,0.4-0.22c0.11-0.16,0.54-0.78,1.2-1.75c4.51-6.69,19.96-30.31,19.96-40.48
		C53.56,13.79,49.43,6.97,43.26,3.19z M33,61.14c-0.42,0.63-0.77,1.13-1,1.49c-2.91-4.27-20.57-30.61-20.57-41.08
		c0-11.34,9.23-20.57,20.57-20.57c0.32,0,0.64,0.01,0.96,0.03c0.03,0,0.06-0.01,0.1,0c10.86,0.55,19.52,9.55,19.52,20.54
		C52.57,31.15,37.7,54.12,33,61.14z"></path><path fill="#ff4a4a" d="M33.05,1.01c-0.04-0.01-0.07,0-0.1,0c-10.86,0.55-19.52,9.55-19.52,20.54c0,9.6,14.87,32.57,19.56,39.59
		c4.7-7.02,19.57-29.99,19.57-39.59C52.57,10.56,43.91,1.57,33.05,1.01z M32,38.3c-9.03,0-16.36-7.34-16.36-16.36
		S22.97,5.57,32,5.57c0.33,0,0.67,0.01,1,0.03c8.56,0.52,15.37,7.64,15.37,16.33S41.56,37.75,33,38.27
		C32.66,38.29,32.33,38.3,32,38.3z"></path><path fill="#ef3c3c" d="M33,61.14c-0.42,0.63-0.77,1.13-1,1.49c-2.91-4.27-20.57-30.61-20.57-41.08c0-11.34,9.23-20.57,20.57-20.57
		c0.32,0,0.64,0.01,0.96,0.03c-10.86,0.55-19.52,9.55-19.52,20.54C13.44,31.15,28.3,54.12,33,61.14z"></path><path d="M32,5.57c-9.03,0-16.36,7.34-16.36,16.36S22.97,38.3,32,38.3s16.37-7.34,16.37-16.36S41.02,5.57,32,5.57z M32,37.32
		c-8.48,0-15.38-6.89-15.38-15.38S23.52,6.56,32,6.56c8.49,0,15.39,6.89,15.39,15.38S40.48,37.32,32,37.32z"></path><path fill="#ffbb24" d="M32,6.56c-8.48,0-15.38,6.89-15.38,15.38S23.52,37.32,32,37.32c8.49,0,15.39-6.89,15.39-15.38
		S40.48,6.56,32,6.56z M41.73,31.61c-0.01,0.01-0.02,0.03-0.03,0.04s-0.03,0.02-0.04,0.03c-2.58,2.57-6,3.98-9.65,3.99
		c0,0-0.01,0.01-0.02,0.01c-0.01,0-0.02-0.01-0.03-0.01c-3.63-0.01-7.04-1.42-9.62-3.97c0-0.01-0.01-0.01-0.02-0.02
		c-0.02-0.02-0.04-0.04-0.06-0.06c-1.1-1.09-2.01-2.38-2.69-3.82c-0.88-1.83-1.31-3.8-1.31-5.86c0-3.67,1.42-7.11,4.01-9.7
		l0.01-0.01l0.01-0.01c1.82-1.82,4.1-3.08,6.59-3.65c0.01,0,0.01,0,0.01,0c0.98-0.24,2.03-0.35,3.1-0.35c3.67,0,7.12,1.42,9.7,4.02
		c0.01,0,0.01,0.01,0.02,0.02c0.01,0.01,0.03,0.03,0.04,0.04c2.55,2.58,3.96,5.99,3.97,9.62c0,0.01,0.01,0.02,0.01,0.03
		s-0.01,0.02-0.01,0.02C45.72,25.61,44.3,29.03,41.73,31.61z"></path><path fill="#ced6e0" d="M42.78,21.94c0-0.28,0.23-0.49,0.49-0.49h1.45c-0.12-3.05-1.3-5.91-3.39-8.14l-1.01,1
		c-0.1,0.1-0.22,0.15-0.34,0.15c-0.13,0-0.26-0.05-0.35-0.15c-0.19-0.19-0.19-0.5,0.01-0.7l1.01-1.01
		c-2.24-2.08-5.09-3.26-8.15-3.38v1.44c0,0.14-0.05,0.27-0.15,0.35c-0.09,0.09-0.21,0.15-0.34,0.15c-0.28,0-0.49-0.23-0.49-0.49
		V9.22c-0.82,0.04-1.62,0.13-2.38,0.31c0,0,0,0-0.01,0c-2.16,0.49-4.14,1.56-5.77,3.07l1.03,1.02c0.19,0.19,0.19,0.5,0,0.69
		c-0.1,0.1-0.23,0.15-0.35,0.15c-0.13,0-0.25-0.05-0.34-0.15l-1.02-1.01c-2.08,2.24-3.26,5.09-3.38,8.15h1.45
		c0.27,0,0.49,0.22,0.49,0.49s-0.23,0.49-0.49,0.49h-1.45c0.07,1.73,0.45,3.4,1.19,4.94c0.57,1.19,1.31,2.26,2.19,3.21l1.01-1.02
		c0.2-0.19,0.51-0.19,0.7,0c0.2,0.2,0.2,0.5,0,0.7l-1,1.01c2.24,2.08,5.09,3.27,8.14,3.39v-1.45c0-0.27,0.22-0.49,0.49-0.49
		c0.28,0,0.49,0.23,0.49,0.49v1.45c3.06-0.12,5.92-1.3,8.15-3.39l-1.01-1.01c-0.2-0.19-0.2-0.5,0-0.69c0.19-0.2,0.5-0.2,0.69,0
		l1.02,1.01c2.08-2.24,3.26-5.09,3.38-8.15h-1.45C43,22.43,42.78,22.21,42.78,21.94z M38.91,22.58H33.6
		c-0.16,0.54-0.58,0.96-1.11,1.12v0.72c0,0.28-0.23,0.49-0.49,0.49c-0.28,0-0.49-0.22-0.49-0.49v-0.73
		c-0.54-0.17-0.96-0.58-1.11-1.11h-0.73c-0.28,0-0.49-0.22-0.49-0.49c0-0.27,0.22-0.49,0.49-0.49h0.73c0.17-0.53,0.58-0.95,1.11-1.1
		v-6.27c0-0.28,0.22-0.49,0.49-0.49c0.27,0,0.49,0.22,0.49,0.49v6.27c0.53,0.16,0.95,0.58,1.11,1.1h5.31c0.28,0,0.49,0.23,0.49,0.49
		C39.4,22.36,39.18,22.58,38.91,22.58z"></path><path fill="#ffbb24" d="M32.69,22.09c0,0.37-0.32,0.7-0.7,0.7c-0.39-0.01-0.7-0.31-0.7-0.69c0-0.01,0-0.01,0-0.02c0,0,0,0,0-0.01
		c0.01-0.37,0.31-0.67,0.69-0.69c0,0,0,0,0.01,0H32C32.39,21.4,32.69,21.7,32.69,22.09z"></path></svg>