<svg xmlns="http://www.w3.org/2000/svg" viewBox="0 0 2500 2500" id="microscope"><path fill="#0f0f5e" d="m1270.75,243.5c16.31-4.09,41.01,11.25,56.4,16.53l235.69,86.02c18.24,7.45,37.09,11.1,49.37,27.49-6.85,27.06-20.31,54.25-30.84,80.21l-12.92,31.98c-14.29,34.92-22.85,18.59-51.47,8.34l-45.76-15.39c-1.44,9.83-5.56,19.38-8.93,28.68l-12.15,34.16c24.65,16.79,57.93,17.92,77.5,41.76-14.44,55-57.03,117.4-74.99,180.52l45.18,8.28c39.59,10.38,68.21,34.91,101.54,57.04l58.71,37.15c392.27,275.92,380.98,838.57-2.08,1113.22-21.88,15.69-45.03,28.56-68.25,42.02,9.08.3,18.22-.81,27.32-.97l347.07-.54c14.37-.22,30.09-1.77,44.22.81l11.05,2.25c129.68,36.34,102.09,219.92-9.49,233.2-12.89,1.53-26.67.63-39.64.63l-1103.36-.04-333.04.05c-13.52-.01-28.41,1.32-41.63-1.63-100.63-22.51-130.54-160.77-39.19-216.12l2.07-1.24c32.34-19.62,64.31-17.73,100.41-17.76l474.38-.34-243.01-225.37c-11.13-10.28-10.79-10.51-25.64-10.49l-169.44.09c-22.76,0-47.03,1.75-69.59-.44-18.19-1.77-12.88-23.68-12.91-36.98l.03-94.53c.13-50.3,20.61-38.24,66.11-38.4l339.87-.16c12.26.05,24.07,2.42,36.29,1.75-3.19-2.56-27.22-6.2-33.77-8.47l-148.02-54.39c-31.59-12.86-23.35-27.65-11.24-54.59l33.91-76.01-86.31-39.53c-23.36-10.65-64.99-17.35-51.15-46.92,14.94-31.92,32.98-62.71,49.79-93.69l322.37-605.44c17.88-33.69,36.35-66.93,51.58-101.91,13.16-30.22,55.55-.11,75.88,12.16,15.63-15.01,29.13-79.78,44.88-103.37,9.83.88,20.25,6.16,29.44,9.63l36.46,12.36c3.35-18.27,8.32-38.61,19.67-53.67l.93-1.21c-4.67-3.15-11.46-4.62-16.86-6.48l-29.77-10.87c-31.82-11.77-30.62-18.8-17.18-46.13l21.51-45.02c7.64-17.74,13.17-45.78,29.03-58.23Z"></path><path fill="#3aac71" d="m1316.25,425.28l1.92-.43c7.21-1.26,21.11,4.78,28.27,6.9l46.84,14.38c17.73,5.51,35.83,11.22,51.33,21.71l-12.32,41.95c-1.79,5.14-3.4,11.36-7,15.53l-3.62-.64c-36.16-19.85-88.72-26.02-130.5-48.96,5.74-18.78,10.23-36.42,25.07-50.43Z"></path><path fill="#1330a7" d="m822.43,1434.88c10.8-1.69,20.52,6.74,30.05,11.01l141.27,61.98c31.88,14.52,33.99,6.83,22.95,37l-20.56,56.64-20.36-4.8-207.02-69.97c16.03-31.06,28.82-66.57,53.67-91.86Z"></path><path fill="#ff2f2f" d="m821.59,1783.24l242.78,1.91,4.02,218.67c-36.89-16.88-100.07-84.27-131.22-112.84-38.89-35.68-79.04-69.55-115.59-107.75Z"></path><path fill="#3aac71" d="m1286.48,276.31c10.04,5.15,21.17,8.7,31.73,12.73l256.82,96.7-25.28,66.65c-2.25,5.41-4.24,15.55-8.72,19.22l-3.92-1.52c-13.2-6.54-27.48-11.22-41.2-16.59l-250.94-90.54,41.51-86.65Z"></path><path fill="#1330a7" d="m1206.25,477.65l203.7,84.85c25.72,10.17,55.12,15.12,79.08,29.04l-40.23,92.68-1.66,2.49c-7.7-2.44-38.12-21.37-52.17-27.48l-155.39-64.52c-23.87-9.98-47.61-18.89-70.5-31.04,16.66-25.61,23.73-58.4,37.17-86.01Z"></path><path fill="#3aac71" d="m685.06,1646.81l508.42-.22-.12,101.71-147.52.8c-4.23-1.44-14.62-.01-19.47-.01l-449.04.14c-12.55.01-25.35.94-37.87.43l-.08-102.18c15.81-1.7,32.75-.54,48.68-.56l97-.1Z"></path><path fill="#ff2f2f" d="m1434.1,801.8c140.01-11.52,214.34,148.25,140.66,245.82-27.96,37.03-73.5,62.06-119.09,68.59l-2.59.34c-41.68,4.99-83.15-13.71-115.33-39.12-105.72-83.44-54.47-261.32,96.34-275.62Z"></path><path fill="#0f0f5e" d="m1439.24,886.63c8.08-.95,17.8-.89,25.67,1.29l2.22.66c81.34,23.09,63.85,132.1-18,142.5-92.37,5.17-117.99-126.94-9.9-144.45Z"></path><path fill="#fff" d="m1443.74,919.46c48.99-3.25,55.24,68.43.43,79.42-56.67-.94-58.54-71.62-.43-79.42Z"></path><path fill="#3aac71" d="m1444.17,1781.88l15.54-.89-1.09,237.82-344.1,1.45-15.02,2.52-.13-238.56,344.79-2.34Z"></path><path fill="#0f0f5e" d="m1266.43,1859.58c46.49-2.63,60.14,37.7,17.31,54.4-46.04,4.29-60.85-43.13-17.31-54.4Z"></path><path fill="#ff2f2f" d="m1623.61,881.65c18.4,10.79,34.5,25.61,50.77,39.27,125.59,105.49,203.88,237.29,231.66,399.77,43.64,255.22-80.01,511.16-298.04,648.27-35.22,21.77-73.9,38.75-114.61,46.44-3.09-3.87-1.54-214.84-.75-236.39,5.94-4.05,12.84-4.07,19.47-6.45,19.79-7.1,35.35-18.95,50.7-33.05,183.04-168.14,187.06-470.62,18.77-650.4,64.02-62.62,60.67-129.28,42.03-207.46Z"></path><path fill="#fff" d="m1557.72,1111.97c145.42,166,161.35,429.38-4.72,588.94-64.67,62.12-70.62,47.98-154.89,48.05l-172.17-.29-.25-78.09c.04-15.39,4.47-35.06-5.14-48.19l-.93-1.24-1.55-.94c-19.54-12.63-48.33-6.51-70.66-6.53l-123.66,1.6,28.39-83.85,28.4,15.33c12.27,6.32,66.68,31.41,79.27,26.74,9.63-3.58,23.13-38.19,28.26-47.71l163.89-312.53c11.95-22.73,26.53-45.28,36.79-68.74l.82-1.92c8.06.54,16.28,4.33,24.35,5.7,51.72,8.77,101.1-6.36,143.78-36.32Z"></path><path fill="#f3b51b" d="m549.86,2054.72l1441.14.2c9.76.43,19.37,1.43,28.3,5.61l2.34,1.11c77.02,35.24,58.67,137.71-15.17,159.52-15.41,4.55-34.79,2.52-50.7,1.79H558.77c-21.2-.01-43.17,1.19-64.26-.41-72.41-5.52-99.77-154.2,13.45-167.08,13.6-1.54,28.18-.71,41.9-.75Z"></path><path fill="#3359f5" d="m1101.28,561.06c29.94,22.23,66.6,36.05,100.54,51.05l140.99,60.79c29.14,12.33,61.3,24.03,87.14,42.52-10.59,25.49-8.17,30.58-13.72,51.57l-14.49,2.98c-153.68,37.25-206.63,231.98-84.64,332.62,12.5,10.31,26.64,18.57,40.48,26.93l-211.58,411.58-16.83-7.42-443.75-195.25,415.85-777.37Z"></path></svg>