<svg xmlns="http://www.w3.org/2000/svg" width="32" height="32" id="geometry"><g color="#000" transform="translate(736 -1171.362)"><circle cx="-714.496" cy="1182.901" fill="#f4606e" overflow="visible" style="isolation:auto;mix-blend-mode:normal" r="9"></circle><path fill="#f89963" style="isolation:auto;mix-blend-mode:normal" d="M-714.496 153.54a9 9 0 0 0-1.734.177 9 9 0 0 1 7.23 8.822 9 9 0 0 1-7.266 8.822 9 9 0 0 0 1.77.178 9 9 0 0 0 9-9 9 9 0 0 0-9-9z" overflow="visible" transform="translate(0 1020.362)"></path><circle style="isolation:auto;mix-blend-mode:normal" cx="-725.504" cy="1182.901" r="9" fill="#02daa9" overflow="visible"></circle><circle style="isolation:auto;mix-blend-mode:normal" cx="-720.004" cy="1191.824" r="9" fill="#00a5ff" overflow="visible"></circle><path fill="#00bb84" style="isolation:auto;mix-blend-mode:normal" d="M-725.504 153.54a9 9 0 0 0-9 9 9 9 0 0 0 9 9 9 9 0 0 0 1.734-.179 9 9 0 0 1-7.23-8.822 9 9 0 0 1 7.266-8.822 9 9 0 0 0-1.77-.178z" overflow="visible" transform="translate(0 1020.362)"></path><path fill="#0079fd" style="isolation:auto;mix-blend-mode:normal" d="M-728.83 169.717a9 9 0 0 0-.174 1.744 9 9 0 0 0 9 9 9 9 0 0 0 9-9 9 9 0 0 0-.174-1.717 9 9 0 0 1-8.826 7.256 9 9 0 0 1-8.826-7.283z" overflow="visible" transform="translate(0 1020.362)"></path><path fill="#fff" style="isolation:auto;mix-blend-mode:normal" d="M-714.496 153.54a9 9 0 0 0-.764.036 9 9 0 0 1 8.26 8.963 9 9 0 0 1-8.246 8.963 9 9 0 0 0 .75.037 9 9 0 0 0 9-9 9 9 0 0 0-9-9z" overflow="visible" transform="translate(0 1020.362)"></path><path fill="#fe2b70" d="M-720.852 1183.368a8.5 8.5 0 0 0-1.797.386 8.5 8.5 0 0 1 1.797-.386zm2.153.06a8.5 8.5 0 0 1 .818.172 8.5 8.5 0 0 0-.818-.171zm.818.172a8.5 8.5 0 0 1 .81.254 8.5 8.5 0 0 0-.81-.254zm.81.254a8.5 8.5 0 0 1-2.923 5.506 8.5 8.5 0 0 0 5.498 2.041 8.5 8.5 0 0 0 2.927-.527 8.5 8.5 0 0 0-5.502-7.02z" overflow="visible" style="isolation:auto;mix-blend-mode:normal"></path><path fill="#fff" style="isolation:auto;mix-blend-mode:normal" d="M-725.504 153.54a9 9 0 0 0-9 9 9 9 0 0 0 9 9 9 9 0 0 0 .754-.038 9 9 0 0 1-8.25-8.963 9 9 0 0 1 8.236-8.963 9 9 0 0 0-.74-.037z" overflow="visible" transform="translate(0 1020.362)"></path><path fill="#3ddef0" d="M-720.873 1183.323a8.547 8.547 0 0 0-1.806.39 8.547 8.547 0 0 1 1.806-.39zm-2.09.493a8.547 8.547 0 0 0-.005 0 8.547 8.547 0 0 1 .006 0zm-.005 0a8.547 8.547 0 0 0-5.538 7.045 8.547 8.547 0 0 0 2.955.538 8.547 8.547 0 0 0 8.486-7.583 8.547 8.547 0 0 0-.006 0 8.547 8.547 0 0 1-2.951 5.542 8.547 8.547 0 0 1-2.946-5.54z" overflow="visible" style="isolation:auto;mix-blend-mode:normal"></path><path fill="#f8e71b" d="M-719.994 1176.43a8.5 8.5 0 0 0-3.002 6.47 8.5 8.5 0 0 0 .06.96 8.5 8.5 0 0 1 .006 0 8.5 8.5 0 0 1-.002-.01 8.5 8.5 0 0 1 .283-.096 8.5 8.5 0 0 1 1.797-.387 8.5 8.5 0 0 1 .848-.043 8.5 8.5 0 0 1 .453.014 8.5 8.5 0 0 1 .797.084 8.5 8.5 0 0 1 .049.01 8.5 8.5 0 0 0 .002 0 8.5 8.5 0 0 1 1.633.426 8.5 8.5 0 0 0 .066-.953 8.5 8.5 0 0 0-2.99-6.471zm2.923 7.424a8.5 8.5 0 0 1-2.316 4.933 8.5 8.5 0 0 0 2.316-4.933zm-5.865.01a8.5 8.5 0 0 0 .36 1.66 8.5 8.5 0 0 1-.36-1.66zm.362 1.664a8.5 8.5 0 0 0 .296.783 8.5 8.5 0 0 1-.296-.783zm.322.834a8.5 8.5 0 0 0 .336.68 8.5 8.5 0 0 1-.336-.68zm.49.93a8.5 8.5 0 0 0 .3.476 8.5 8.5 0 0 1-.3-.476zm.473.703a8.5 8.5 0 0 0 .34.431 8.5 8.5 0 0 1-.34-.431zm.592.703a8.5 8.5 0 0 0 .337.355 8.5 8.5 0 0 1-.337-.355z" overflow="visible" style="isolation:auto;mix-blend-mode:normal"></path><path fill="#fff" style="isolation:auto;mix-blend-mode:normal" d="M-711.04 170.72a9 9 0 0 1-8.964 8.28 9 9 0 0 1-8.965-8.248 9 9 0 0 0-.035.709 9 9 0 0 0 9 9 9 9 0 0 0 9-9 9 9 0 0 0-.035-.74z" overflow="visible" transform="translate(0 1020.362)"></path><path fill="#fff" style="isolation:auto;mix-blend-mode:normal" d="M-720 1182.765a10.099 10.099 0 0 0-1.007.05 10.099 10.099 0 0 0-2.135.46 10.099 10.099 0 0 0-.336.115 10.099 10.099 0 0 0 0 .023 10.099 10.099 0 0 0-.006 0 10.099 10.099 0 0 0 3.48 6.546 10.099 10.099 0 0 0 3.488-6.553 10.099 10.099 0 0 0-1.94-.506 10.099 10.099 0 0 0-.059 0 10.099 10.099 0 0 0-.946-.101 10.099 10.099 0 0 0-.539-.023z" overflow="visible"></path><path fill="#de1470" d="M-716.304 1184.158a8.548 8.548 0 0 1 4.735 6.702 8.94 8.94 0 0 1-.558.182 8.522 8.522 0 0 0-4.48-6.264c-.393-.416-.393-.416.303-.62zm-3.499 4.966a8.67 8.67 0 0 1-.232.246c-.005 0-.011-.01-.016-.012l.035-.031c.075-.064.141-.136.213-.203zm-.271.213c.007.01.014.013.021.019-.007-.01-.014-.011-.021-.017zm-.5.5c.007.01.014.01.021.019-.007-.01-.014-.01-.021-.02z" overflow="visible" style="isolation:auto;mix-blend-mode:normal"></path><path fill="#f9d259" d="M-716.787 1183.569a8.547 8.547 0 0 0-3.43-7.539 8.575 8.575 0 0 0-.437.393 8.522 8.522 0 0 1 3.189 6.89c.465.05.465.05.678.256z" overflow="visible" style="isolation:auto;mix-blend-mode:normal"></path><path fill="#30a2f2" style="isolation:auto;mix-blend-mode:normal" d="M-722.969 163.453a8.546 8.546 0 0 0-5.537 7.045c.184.069.371.126.559.182a8.524 8.524 0 0 1 5.086-6.551 8.511 8.511 0 0 1-.108-.672v-.004zm2.698 5.309c.076.083.152.165.232.246l.016-.012-.036-.031c-.074-.064-.14-.137-.212-.203zm.271.213-.021.02.021-.018v-.002zm.5.5c-.007.006-.015.01-.021.02.007-.007.014-.01.021-.02z" overflow="visible" transform="translate(0 1020.362)"></path><path fill="none" stroke="#000" stroke-linecap="round" stroke-linejoin="round" d="M-729.007 1174.608a8.97 8.97 0 013.503-.707 8.972 8.972 0 016.364 2.636 9 9 0 11-12.728 0M-706.203 1179.398a9 9 0 11-1.929-2.86M-720.004 1200.824a9 9 0 113.503-.708" overflow="visible" style="isolation:auto;mix-blend-mode:normal"></path></g></svg>