<svg xmlns="http://www.w3.org/2000/svg" viewBox="0 0 512 512" id="dna"><g><path fill="#80eaff" d="M395.88,328.987a67.007,67.007,0,1,1-67.006-67.006A67.007,67.007,0,0,1,395.88,328.987Zm75.6,162.719L407.13,427.352a3.12,3.12,0,0,1,0-4.412l.937-.937,13.919-13.918.936-.937a3.12,3.12,0,0,1,4.413,0L491.689,471.5C507.482,487.3,487.278,507.5,471.484,491.706Zm5.077-352.927c-25.9,20.524-70.351,53-86.646,58.328-14.866,4.866-37.926-3.61-61.453-13.568-9.959-23.527-18.435-46.588-13.569-61.454,5.333-16.295,37.8-60.744,58.328-86.646,11.392-14.375-8.059-29.789-19.451-15.414-5.507,6.949-54.052,68.64-62.464,94.34-5.439,16.619-1.713,35.809,5.2,55.648-24.257-9.68-48.153-16.53-68.281-9.943-13.344,4.368-31.677,17.215-49.041,34.367-8.559,8.452-29.025,30.18-34.237,49.332-4.457,16.378.736,34.054,9.417,51.981-12.929-5.2-25.595-7.915-37.552-5.7-26.53,4.917-84.836,53.452-96.254,63.131-15.449,13.095.6,32.026,16.046,18.932,26.313-22.3,70-54.93,84.731-57.661,15.61-2.893,39.368,11.263,62.355,24.975q-3.478-2.074-6.971-4.144c12.249,20.726,23.43,41.347,20.829,55.382-2.731,14.735-35.363,58.418-57.661,84.731-13.095,15.449,5.837,31.5,18.932,16.046,9.679-11.418,58.213-69.724,63.131-96.254,2.216-11.957-.5-24.623-5.7-37.552,11.849,5.738,23.585,9.93,34.913,10.841a86.518,86.518,0,0,1-8.521-26.81c-13.873-4.251-30.19-13.98-46.15-23.5l-1.666-.994-.994-1.666c-14.412-24.16-29.314-49.144-24.939-65.221,5.24-19.256,45.972-59.731,67.051-66.63,17.1-5.6,45.046,6.458,72.069,18.118l1.545.667.667,1.545c5.548,12.858,11.181,25.922,14.964,37.93,1.222-.05,2.45-.083,3.685-.083a87.26,87.26,0,0,1,22.848,3.033,215.9,215.9,0,0,0-9.735-29.372c19.839,6.912,39.029,10.638,55.648,5.2,25.7-8.412,87.391-56.957,94.34-62.464C506.35,146.838,490.936,127.387,476.561,138.779Z"></path><path fill="#57a4ff" d="M328.857,258.756A70.248,70.248,0,1,0,399.106,329,70.328,70.328,0,0,0,328.857,258.756Zm0,126.5A56.248,56.248,0,1,1,385.106,329,56.313,56.313,0,0,1,328.857,385.252Zm103.41,16.96a10.058,10.058,0,0,0-7.155-2.961h0a10.042,10.042,0,0,0-7.152,2.962l-3,3-14.794-14.8a94.094,94.094,0,0,0-42.656-151.1c-1.087-4.054-2.4-8.3-3.983-12.891,16.174,4.3,31.859,5.654,46.268.939,26.294-8.606,85.007-54.516,96.51-63.631,10.678-8.464,10.2-20.544,4.212-28.1s-17.642-10.786-28.323-2.321c-11.311,8.963-23.877,18.455-35.927,27.1l5.284-5.283L356.026,69.6c7.395-10.122,15.212-20.394,22.664-29.8,8.463-10.679,5.24-22.332-2.32-28.322s-19.638-6.467-28.1,4.212c-9.116,11.5-55.025,70.216-63.632,96.511-4.21,12.865-3.913,27.776.973,46.274-20.847-7.214-41.248-11.044-59.58-5.044-14.325,4.689-33.682,18.161-51.782,36.039-11.13,10.993-30.616,32.428-36.072,52.474-3.962,14.56-.982,29.561,3.677,42.394a63.029,63.029,0,0,0-26.333-1.157c-27.571,5.112-83.133,50.795-99.505,64.675-6.706,5.684-9.786,13.163-8.451,20.521a18.489,18.489,0,0,0,11.921,14.065,18.952,18.952,0,0,0,6.412,1.112c5.185,0,10.494-2.084,15.216-6.087,7.865-6.664,16.417-13.55,24.965-20.124l88.576,88.577c-6.573,8.547-13.459,17.1-20.123,24.963-5.684,6.706-7.5,14.59-4.975,21.629a18.49,18.49,0,0,0,14.065,11.922,19,19,0,0,0,3.385.306c6.223,0,12.323-3.079,17.136-8.757,13.88-16.372,59.563-71.935,64.674-99.506,1.5-8.057,1.1-16.769-1.191-26.341a92.563,92.563,0,0,0,19.149,4.936,94.055,94.055,0,0,0,143.495,25.239l14.794,14.794-2.9,2.9a10.135,10.135,0,0,0,0,14.312l64.354,64.353c5.089,5.089,11.169,7.787,17.262,7.787A20.629,20.629,0,0,0,503.7,489.183c2.087-7.786-.494-16.029-7.079-22.614ZM341.876,235.756a94.474,94.474,0,0,0-11.667-.888c-2.163-6.26-4.718-12.716-7.416-19.2,4.618,1.894,9.236,3.708,13.837,5.377C338.728,226.437,340.448,231.269,341.876,235.756ZM199.849,312.045c-13.06-21.893-27.82-46.671-24.219-59.9a36,36,0,0,1,4.174-8.828l58.815,58.815A93.862,93.862,0,0,0,234.7,329c0,.731.011,1.46.028,2.187-10.847-4.815-22.912-12-34.673-19.02Zm44.323-24.164-56.04-56.04a194.92,194.92,0,0,1,13.606-14.834l53.444,53.444A94.372,94.372,0,0,0,244.172,287.881ZM264.7,260.165,212.029,207.5a137.375,137.375,0,0,1,16.2-12.236l52.72,52.719A94.7,94.7,0,0,0,264.7,260.165Zm29.527-18.714-52-51.995c15.087-1.771,39.77,8.743,61.987,18.328,4.041,9.366,8.142,18.934,11.453,28A93.416,93.416,0,0,0,294.224,241.451Zm136.65-77.2c-6.936,4.892-13.6,9.417-19.64,13.309l-76.792-76.792c3.891-6.043,8.417-12.7,13.308-19.639ZM333.787,178.2c-8.8-21.022-16.187-41.921-12.257-53.926a68.639,68.639,0,0,1,5.407-11.217l72,72a68.659,68.659,0,0,1-11.218,5.406C375.7,194.4,354.621,186.911,333.787,178.2Zm-35.846-61.646c6.524-19.929,41.6-67.313,61.3-92.17,3.093-3.9,6.385-3.558,8.435-1.934s3.137,4.75.043,8.654c-17.93,22.629-53.439,70.313-59.493,88.816-4.235,12.935-.683,29.291,7.36,50.492-4.491-1.93-9-3.845-13.5-5.682C295.249,144.148,293.929,128.82,297.941,116.558ZM151.684,245.623c4.9-18,26.039-39.906,32.4-46.189,16.382-16.181,34.122-28.71,46.3-32.695,23.508-7.69,54.6,5.718,84.671,18.691,28.218,12.178,57.4,24.766,77.019,18.346,18.5-6.056,66.188-41.564,88.817-59.494,3.9-3.095,7.03-2.007,8.654.043s1.969,5.341-1.935,8.434c-24.856,19.7-72.24,54.776-92.169,61.3-23.51,7.693-54.6-5.72-84.671-18.694-28.221-12.176-57.4-24.764-77.02-18.343-23.559,7.709-65.732,49.775-71.629,71.445-3.735,13.725,3.442,31.3,13.451,49.618-5.35-2.854-10.707-5.492-16.054-7.764C150.934,271.84,148.439,257.548,151.684,245.623ZM77.373,348.841c7.416-5.459,14.582-10.48,21.037-14.708l79.456,79.457c-4.227,6.455-9.248,13.621-14.708,21.037Zm94.218-8.426c10.52,17.882,21.176,37.558,19.056,48.992-.492,2.658-2.365,6.788-5.246,11.917L110.676,326.6c5.129-2.881,9.26-4.754,11.918-5.247C133.863,319.261,153.088,329.539,171.591,340.415Zm43.459,53.514c-3.565,19.229-35.4,62.119-61.589,93-2.363,2.788-5.035,4.147-7.342,3.729a4.394,4.394,0,0,1-3.385-2.869c-.79-2.2.113-5.067,2.477-7.855,15.271-18.021,55.677-68.957,59.2-87.98,2-10.813-2.249-23.7-9.116-37.55,5.115,2.928,10.253,5.745,15.4,8.319C215.254,374.863,216.686,385.1,215.05,393.929Zm-27.7-60.443c-25.24-15.057-49.075-29.281-67.305-25.9-19.023,3.525-69.959,43.93-87.981,59.2-2.789,2.364-5.655,3.265-7.854,2.475a4.391,4.391,0,0,1-2.869-3.384c-.418-2.3.94-4.98,3.728-7.342,30.886-26.184,73.776-58.025,93-61.589,22.231-4.119,48.965,11.825,74.82,27.246,14.716,8.778,29.894,17.828,43.544,22.789a93.365,93.365,0,0,0,3.282,12.345C222.908,354.693,204.886,343.948,187.347,333.486ZM248.7,329a80.153,80.153,0,1,1,80.153,80.152A80.244,80.244,0,0,1,248.7,329ZM490.179,485.56a6.62,6.62,0,0,1-4.669,4.669c-2.864.768-6.1-.459-9.092-3.457l-61.611-61.609,10.305-10.306,61.61,61.611h0C489.719,479.465,490.946,482.694,490.179,485.56Z"></path></g></svg>