<svg xmlns="http://www.w3.org/2000/svg"  viewBox="0 0 48 48" width="48px" height="48px"><path fill="#8ce7f2" d="M39,47H17c-1.66,0-3-1.34-3-3V13c0-1.66,1.34-3,3-3h22c1.66,0,3,1.34,3,3v31C42,45.66,40.66,47,39,47z"/><line x1="15.5" x2="27.5" y1="28.5" y2="28.5" fill="none" stroke="#18193f" stroke-linecap="round" stroke-linejoin="round" stroke-miterlimit="10" stroke-width="3"/><line x1="15.5" x2="31.5" y1="22.5" y2="22.5" fill="none" stroke="#18193f" stroke-linecap="round" stroke-linejoin="round" stroke-miterlimit="10" stroke-width="3"/><path fill="none" stroke="#18193f" stroke-linecap="round" stroke-linejoin="round" stroke-miterlimit="10" stroke-width="3" d="M24,10.5h7.5c0.55,0,1,0.45,1,1v4c0,0.55-0.45,1-1,1h-15c-0.55,0-1-0.45-1-1v-4c0-0.55,0.45-1,1-1h1.08"/><path fill="none" stroke="#18193f" stroke-linecap="round" stroke-linejoin="round" stroke-miterlimit="10" stroke-width="3" d="M38.5,37.29v3.21c0,1.66-1.34,3-3,3h-23c-1.66,0-3-1.34-3-3v-24"/><path fill="none" stroke="#18193f" stroke-linecap="round" stroke-linejoin="round" stroke-miterlimit="10" stroke-width="3" d="M9.5,9.8V8.5c0-1.66,1.34-3,3-3h23c1.66,0,3,1.34,3,3V30"/></svg>