<svg xmlns="http://www.w3.org/2000/svg" width="1500" height="1500" id="pencil"><path d="M44.5208 475.125C45.6282 474.918 53.3605 475.225 55.3098 475.21L72.4699 475.11C75.4818 475.106 82.5037 473.964 84.625 476.532L82.9504 477.252C79.9675 477.958 76.5652 478.051 73.5 478.251L56.8345 478.96C54.3401 479.009 42.9664 480.414 44.5208 475.125zM179.596 483.361C182.721 482.91 196.056 483.382 199.409 483.628 202.07 483.824 204.816 483.182 207.5 483.454 212.116 483.922 205.635 487.36 204.092 487.746L200.309 488.902 195.375 490.232C194.492 490.393 192.112 490.533 191.428 490L191.497 489.5C191.882 488.237 195.214 487.065 196.348 486.539 194.662 486.793 192.759 487.287 191.052 487.117L182.25 486.56C180.757 486.493 173.241 486.607 177.098 483.625L179.596 483.361zM30.6643 439.375C32.2991 439.128 39.0781 443.338 41.1465 444.121 47.2343 446.424 52.3923 446.337 58.625 445.379L61.7372 444.758C66.2563 444.272 76.3416 440.704 79.9431 443.25L79.9486 444C79.7404 444.231 79.6351 444.364 79.375 444.566L78.423 445.059 54.75 449.834C52.8859 450.356 50.393 450.755 48.4465 450.431L48.1275 450.375C44.4878 449.758 30.5047 444.017 30.6643 439.375zM257.979 441.625L258.58 441.626C258.714 442.057 258.195 443.189 258.613 443.371 259.56 443.783 262.429 443.346 263.558 443.303L294.562 442.104 360.356 442.034C363.632 442.043 369.07 441.073 372 442.759 373.634 443.699 380.924 443.868 383.25 443.951L409.743 444.17C420.37 444.607 431.022 446.103 441.6 447.122L458.038 448.962C461.892 449.469 467.667 448.634 465.625 454.315 462.908 455.832 456.831 454.068 453.905 453.742L425 450.25C418.123 449.439 410.94 449.399 404.013 449.28 402.142 449.095 400.166 449.138 398.27 449.035L368.809 447.796C366.609 447.731 364.438 447.172 362.2 447.117L297.502 447.056 220.25 449.754C214.985 450.011 209.615 449.948 204.375 450.446 202.43 449.236 200.363 449.909 198.207 450.144L192.644 450.647C195.707 449.655 199.956 450.012 202.58 448.157 206.498 445.385 213.698 446.477 218.264 446.179L229.521 445.318C232.987 445.155 255.55 444.934 257.19 443.451 257.239 443.407 257.646 442.036 257.979 441.625zM255.852 458.213C257.328 458.069 258.947 458.187 260.44 458.188L338.21 458.28 405.26 460.101 452.838 460.244C457.09 460.239 461.991 460.693 466.155 459.914L466.5 459.844C474.571 458.266 470.485 457.242 479.219 459.292 480.837 459.672 501.434 463.427 494.804 468.172 491.764 470.347 481.911 467.683 478.154 468.634L477.875 468.741C474.463 467.373 467.102 469.09 464.251 468.678 448.184 466.355 432.023 466.041 415.812 465.505 414.008 465.595 412.201 465.374 410.398 465.317L346.143 463.323 229.06 463.26C224.942 463.26 211.7 461.997 208.692 464.157 206.03 461.977 194.969 462.662 191.453 463.438L190.625 463.62C190.027 463.704 189.761 463.669 189.258 464.021L188.375 463.791C185.887 463.544 183.387 465.068 180.993 465.762L180.125 465.498C178.569 465.059 176.411 466.356 175.125 465.424L175.233 463.182C176.34 462.364 176.959 461.882 178.322 461.522L178.739 461.418C182.554 460.451 186.541 459.792 190.467 459.501L198.115 459.195C201.115 458.979 204.091 458.462 207.095 458.33L255.852 458.213z" transform="scale(2.92969)"></path><path d="M294.449 5.31021C312.792 5.12602 341.213 15.0894 355.479 25.0451C366.423 32.6821 363.846 39.5506 360.108 50.6719C358.059 56.7688 355.879 62.7879 353.198 68.6393L349.893 75.4927C348.868 77.6184 347.945 77.6702 349.754 79.1759C362.813 90.0505 367.687 90.5308 360.592 106.713L337.391 158.815L317.567 207.21L274.114 306.17L227.197 398.475C222.282 407.516 217.324 417.094 211.024 425.266L273.363 420.764L345.594 418.132C348.128 418.052 350.639 417.53 353.148 417.456L383.823 417.329C386.279 417.271 388.685 416.854 391.134 416.809L443.625 417.329C453.467 417.633 462.857 417.747 472.75 418.251L483.625 419.116C486.901 419.41 490.553 419.381 493.375 421.332C497.189 423.968 497.446 431.157 492.37 432.302C490.596 432.702 488.67 432.362 486.875 432.335L455.75 431.663L379.168 431.663L336.721 432.378L269 435.749L203.423 440.125C196.967 440.604 192.801 447.579 187.865 451.076L175.341 459.845C172.849 461.523 170.129 462.913 167.579 464.505L152.985 474.393C157.916 473.514 163.356 472.886 168.365 472.789C169.741 472.762 179.874 472.659 180.593 472.954C182.187 473.609 184.106 473.441 185.805 473.419L214.25 473.338C217.746 473.364 221.256 473.202 224.75 473.42L277.25 473.873C279.063 473.833 280.826 473.49 282.625 473.391L438.375 473.114C440.49 473.187 442.843 472.936 444.892 473.367L447.233 473.68C445.85 474.48 444.481 475.365 442.909 475.726L442.5 475.815C436.386 477.195 429.122 477.231 422.828 477.432L391.292 477.954L221.903 477.812C220.408 477.76 218.905 477.524 217.42 477.513L189.389 477.119C186.886 477.086 182.958 476.842 180.693 477.258L180.375 477.32C178.631 476.306 165.245 476.729 162.874 476.725L152.661 476.809C143.699 477.304 141.323 479.876 134.044 484.733L124.833 491.304L137.168 491.75C139.736 491.748 142.383 491.887 144.875 491.164L144.659 490.625C143.743 487.916 156.393 480.513 158.981 482.875L158.729 483.625C154.284 487.225 153.018 488.272 148.185 491.133L186.203 491.214C190.575 491.042 193.249 491.233 197.504 491.248L288.285 491.177C292.076 491.121 295.762 490.498 299.54 490.444L348.238 490.468L361 489.402C363.898 489.09 366.793 488.892 369.697 488.698L388.813 487.793L447.601 487.783C454.307 487.792 470.76 485.469 473.222 494.125C471.287 501.364 455.297 499.456 448.72 499.849L414.75 501.658L387.766 501.864L330.25 504.787L170.495 505.24L29.375 504.884C25.1082 504.598 15.2636 504.968 17.4128 497.888L17.5002 497.625C18.5366 494.412 22.1557 493.667 25.1647 493.319L49.64 490.729L70.2711 490.396C74.4883 490.43 79.057 490.232 83.2287 490.861L86.4659 491.201L86.7587 482.223C86.6897 480.643 95.0532 469.529 89.8373 469.424L43.375 470.547C36.7487 470.895 25.009 471.138 18.7341 469.412C15.7441 468.59 14.3997 459.741 23 458.25C33.7363 456.389 49.8591 455.071 60.25 455.806C65.727 456.194 71.2159 457.591 76.665 457.803L91.9531 458.241C92.0707 457.751 92.1578 457.317 92.203 456.813L93.3492 448.034C90.6408 447.978 83.7982 447.326 85.7836 443.125C91.1585 439.802 95.5289 445.838 95.4766 438.469C93.8937 436.885 42.557 437.553 37.1459 437.203C30.1893 436.754 27.632 435.551 21.2432 434.436C14.5482 433.267 14.7864 425.746 20.2252 423.528L20.6411 423.364C24.2635 421.919 29.2739 422.732 33.091 422.737L96.3488 422.921C97.1113 421.946 97.1041 419.016 97.2517 417.747L99.7513 401C101.066 392.064 102.281 382.826 104.758 374.125C106.826 366.862 110.092 359.916 112.837 352.891L129.253 310.372L153.125 244.707L173.762 192.115L192.33 152.842L216.401 108.514L230.552 84.8942C232.199 82.1458 234.917 78.9232 235.845 75.875C234.865 73.7715 238.531 71.9184 239.936 70.6403L238.4 68.6745C241.828 59.1691 255.651 53.2713 263.975 60.2145L264.253 60.449C264.171 50.8862 267.352 43.868 270.603 34.9771C274.546 24.1934 278.023 9.22711 290.905 6.00716L294.449 5.31021ZM144.242 398.125L144.245 398.501C144.273 407.188 135.057 426.104 129.243 432.436L136.966 434.834C151.521 440.04 146.438 441.572 155.324 431.508C162.308 423.111 169.391 415.288 172.313 404.471C168.693 407.343 163.827 410.069 159.008 409.423L157.711 409.197C148.287 408.272 145.842 398.647 144.242 398.125ZM185.322 401.625C185.052 403.886 183.4 406.476 182.712 408.745L181.666 412.538C181.256 414.329 179.956 417.034 181.523 416.875C179.281 421.274 177.687 425.358 174.551 429.275C169.164 436.007 159.763 441.451 157.159 449.895L163.574 444.557L185.7 426.027C190.54 421.818 195.933 418.308 198.15 412.053C194.499 408.199 186.898 404.8 185.566 401.688L185.322 401.625ZM126.487 401.261L126.343 401.696C126.139 402.298 125.84 402.827 125.525 403.375L126.52 404.375C125.105 406.997 118.454 403.017 116.474 401.776C114.167 408.923 113.539 416.88 112.836 424.34L111.602 445.7C112.075 443.819 113.221 441.945 113.999 440.14L116.93 432.982C117.412 431.939 118.111 430.984 118.431 429.873C119.698 425.463 119.428 412.467 122 410.06C127.55 410.029 125.479 413.651 129.375 405.663C129.666 405.065 130.259 404.172 130.354 403.526C132.285 399.8 135.217 396.553 136.857 392.765C134.89 393.992 129.998 396.903 127.643 396.361L126.351 396.147C122.057 395.274 118.841 390.321 116.572 386.985C116.246 389.038 115.567 393.125 116.621 394.962C117.742 396.919 124.531 400.646 126.487 401.261ZM282.137 64.7245L278.871 66.4552C281.712 67.922 284.823 68.7351 287.831 69.7915L299.291 74.0093C315.725 80.1131 331.556 88.2067 345.03 99.5599L345.875 100.347C348.391 97.7032 344.237 93.9742 342.528 92.4809C330.121 81.6371 309.205 72.5454 293.976 67.3969C290.817 66.3288 285.46 63.8685 282.137 64.7245ZM117.85 456.375L117.901 456.642C118.091 457.736 117.959 458.554 117.71 459.625L117.468 459.891C116.79 460.646 116.473 461.023 116.251 462L116.105 462.516C114.724 467.434 114.792 470.13 120.25 470.75L122.118 470.753C124.386 470.749 126.562 469.84 128.339 468.467C129.802 467.128 132.396 464.897 133.103 463.066C130.676 461.132 121.531 455.829 118.181 456.26L117.85 456.375ZM125.495 441.57C124.474 441.842 123.933 442.074 123.228 442.875L123.151 443.375C124.415 444.632 126.232 445.254 127.844 445.965L142.504 453.125L143.396 453.392C148.634 448.314 132.44 442.702 129.542 442.126C128.232 441.865 126.758 441.894 125.495 441.57ZM154.965 383.875C151.379 386.905 155.301 393.816 158.78 395.647C160.139 395.085 161.33 394.486 162.493 393.56L165.595 390.195C163.626 386.719 159.255 383.07 154.965 383.875ZM179.414 333.268C178.56 333.557 177.686 333.716 177.154 334.5C177.924 336.659 189.77 343.854 192.125 341.964C193.309 340.657 193.996 339.499 194.584 337.818C191.212 336.25 187.035 334.4 183.375 333.739L179.414 333.268Z" transform="scale(2.92969)"></path><path fill="#751414" d="M147.414 326.68C148.441 325.684 150.169 325.275 151.508 325.743C151.375 326.286 151.186 326.854 151.152 327.413L147.414 326.68Z" transform="scale(2.92969)"></path><path fill="#9E8D85" d="M194.972 321.374C196.612 321.031 198.269 321.534 199.878 321.867C197.991 325.484 197.293 323.675 194.972 321.374Z" transform="scale(2.92969)"></path><path fill="#857D75" d="M204.913 294.48C206.529 292.206 209.093 293.235 211.558 293.28C209.625 296.316 208.012 295.149 204.913 294.48Z" transform="scale(2.92969)"></path><path fill="#B91818" d="M147.025 326.493L139.878 330.104C142.617 324.023 147.76 319.938 154.796 321.573L154.404 322.212C152.005 323.024 148.91 324.759 147.025 326.493Z" transform="scale(2.92969)"></path><path fill="#751414" d="M138.293 340.456L139.822 342.161C140.841 342.214 142.137 342.197 142.887 343.014L142.971 343.148L129.227 353.305C130.988 349.18 134.996 343.226 138.293 340.456Z" transform="scale(2.92969)"></path><path fill="#CEB499" d="M190.586 299.25L191.625 296.425C191.916 295.764 192.064 295.332 192.75 295.066L194.653 296.103L195.066 296.466L195.233 297.892C196.217 297.831 197.363 298.107 198.376 298.167L203.858 298.254C205.171 298.529 206.511 298.712 207.75 299.229C208.829 301.157 206.108 306.876 204.625 307.717C203.505 307.368 202.531 307.79 201.427 308.148C201.7 309.413 201.527 310.343 201.536 311.588C202.157 312.554 201.813 313.936 201.584 315.001L201.374 315.805C201.007 317.883 200.695 319.907 199.878 321.867C198.269 321.534 196.612 321.031 194.972 321.374C194.219 321.11 193.586 320.665 192.91 320.248L192.36 321.851C191.631 322.365 191.459 323.4 191.189 324.209C192.203 325.32 192.132 327.265 192.288 328.723L184.213 326.713L180.973 325.536C181.388 323.599 181.844 319.873 183.499 318.697L183.375 318.532C182.865 317.474 184.347 315.501 184.722 314.445L190.586 299.25Z" transform="scale(2.92969)"></path><path fill="#857D75" d="M201.536 311.588L201.078 311.349C198.277 309.761 199.325 309.065 201.427 308.148C201.7 309.413 201.527 310.343 201.536 311.588Z" transform="scale(2.92969)"></path><path fill="#9E8D85" d="M190.586 299.25L191.625 296.425C191.916 295.764 192.064 295.332 192.75 295.066L194.653 296.103L195.066 296.466L195.233 297.892C196.217 297.831 197.363 298.107 198.376 298.167L198.372 299.875C197.974 300.14 197.934 300.15 197.499 300.235L197.132 300.311C196.542 300.419 196.249 300.478 195.75 300.123L195.398 299.855C194.183 298.989 192.048 299.264 190.586 299.25Z" transform="scale(2.92969)"></path><path fill="#B91818" d="M166.484 347.875C173.701 347.789 181.426 347.543 188.519 349.144 187.898 353.331 185.751 357.785 184.413 361.825 181.793 369.735 179.902 377.579 179.021 385.875L178.869 386.385C178.583 386.432 176.642 383.565 176.268 383.083 171.092 376.412 165.794 372.581 157.821 370.284L163.077 359.119C165.004 355.345 168.462 352.24 166.484 347.875zM298.189 21.3041C311.692 20.1677 336.668 29.1184 347.531 37.903 344.868 49.2701 341.16 59.6987 336.287 70.3116L334.034 69.0277C323.63 62.9573 311.681 58.5446 300.395 54.5103 294.528 52.413 288.398 50.5337 282.778 47.8374 282.533 40.4035 290.5 23.5256 298.189 21.3041z" transform="scale(2.92969)"></path><path fill="#CEB499" d="M205.826 262.217C207.696 255.937 211.14 250.106 213.737 244.094L228.678 208.983L273.887 110.784C275.569 107.15 285.026 84.5636 286.508 83.279L304.413 91.62L221.101 272.791C220.182 270.65 219.353 268.748 217.803 266.968L218.346 272.875C218.528 274.271 218.967 275.63 218.59 277.022L218.5 277.361C217.496 281.005 216.257 285.064 213.637 287.891L213.279 287.541C212.122 286.486 209.969 285.85 208.515 285.213L207.93 284.168C207.282 283.157 206.217 282.92 205.125 282.593L204.968 283.5C204.52 283.881 204.128 284.102 203.591 284.341C204.705 285.909 207.878 285.589 207.735 288.459C208.536 288.778 208.732 288.62 209.544 288.4C210.437 289.434 211.851 290.551 212.125 291.877L211.558 293.28C209.093 293.235 206.529 292.206 204.913 294.48L203.375 294.449C203.312 295.471 203.795 296.386 203.725 297.514L203.858 298.28L198.376 298.196C197.363 298.107 196.217 297.831 195.233 297.892L195.066 296.466L194.653 296.103L192.499 294.01L194.686 287.98L195.778 285.284L203.719 267.777C204.323 266.261 204.786 264.64 205.726 263.296L205.826 262.217Z" transform="scale(2.92969)"></path><path fill="#9E8D85" d="M212.721 260.333C213.529 259.859 213.798 259.57 214.75 259.625L215.878 261.196C216.757 262.503 216.401 263.717 215.875 261.594L215.5 261.467C215.162 261.719 214.546 262.058 214.316 262.393L212.721 260.333Z" transform="scale(2.92969)"></path><path fill="#2D2F31" d="M195.066 296.466C197.922 296.186 200.654 299.208 203.725 297.514L203.858 298.28L198.376 298.196C197.363 298.107 196.217 297.831 195.233 297.892L195.066 296.466Z" transform="scale(2.92969)"></path><path fill="#6D6D67" d="M205.826 262.217C208.932 262.243 209.877 261.026 212.168 259.383C212.356 259.667 212.649 260 212.721 260.333L214.316 262.393C213.549 262.764 213.228 263.072 212.375 262.916L210.7 261.472L207.952 262.988C207.241 263.374 206.508 263.317 205.726 263.296L205.826 262.217Z" transform="scale(2.92969)"></path><path fill="#857D75" d="M212.168 259.383L212.433 259.212C214.108 258.099 215.218 256.565 216.417 254.987L221.533 247.696C220.562 252.821 218.902 256.945 215.878 261.196L214.75 259.625C213.798 259.57 213.529 259.859 212.721 260.333C212.649 260 212.356 259.667 212.168 259.383Z" transform="scale(2.92969)"></path><path fill="#B91818" d="M191.692 202.874C195.671 196.983 205.267 195.654 209.559 189.375 213.521 183.581 225.344 173.601 226.193 169.25 227.856 160.724 203.623 185.579 202.657 186.45 200.142 188.715 192.029 195.681 188.953 196.923 190.806 193.664 192.695 189.933 195.165 187.125 200.49 181.071 223.524 161.976 225.007 156 222.102 151.025 200.568 171.736 195.212 178.762 197.484 173.624 200.463 168.034 203.97 163.657 207.936 158.708 213.814 155.832 217.715 150.773 222.864 144.094 213.18 148.354 210.892 149.546 212.623 147.029 214.372 143.743 216.646 141.718 218.878 139.73 222.115 140.842 223.199 137.493 226.87 133.8 231.245 135.853 235.725 128.625L235.718 127.875C232.095 126.15 225.102 127.53 221.534 128.566 222.997 126.285 224.373 123.896 226.424 122.085 232.767 116.486 244.906 113.515 246.466 104.125 242.713 100.339 234.303 111.354 230.516 112.366L241.253 97.6557C245.827 90.939 249.477 87.7112 256.921 83.7941 259.295 82.5449 261.913 81.448 263.926 79.6448 259.251 77.943 255.465 77.3582 250.479 77.4296 251.231 75.8666 251.85 74.3115 253.375 73.354 257.47 72.6108 271.05 77.574 275.69 79.4252 270.628 87.4518 266.545 96.1363 262.34 104.634L244.797 141.796 213.364 211.234 188.488 271.374 174.847 310.731 165.498 334.288C164.224 337.313 162.179 340.172 161.276 343.331 162.678 344.258 163.749 345.529 165.191 346.375L164.589 346.375C162.908 345.831 161.035 346.29 159.352 346.62 156.339 348.664 154.329 351.82 152.431 354.852L143.46 370.375C140.633 374.815 135.99 379.908 131.664 382.91 125.622 387.103 125.85 383.74 124.681 378.376 123.671 373.745 125.346 375.121 125.216 372.819 124.573 373.064 124.209 373.431 123.698 373.875 120.96 371.685 124.725 364.447 126.507 362.648 133.39 355.699 144.108 352.871 149.192 341.899 146.836 341.962 145.135 342.165 142.971 343.148L142.887 343.014C142.137 342.197 140.841 342.214 139.822 342.161L138.293 340.456 145.351 334.338C146.651 333.237 150.998 329.244 151.152 327.413 151.186 326.854 151.375 326.286 151.508 325.743 152.891 324.123 155.116 323.417 156.265 321.64 157.036 319.523 161.245 318.672 158.127 316.811L157.863 316.656C158.699 315.55 160.61 313.595 160.692 312.267L160.445 312.095C157.75 310.574 148.921 315.375 145.759 316.243 150.211 305.468 161.319 306.491 166.689 294.892 160.123 295.279 154.863 299.263 149.308 302.396 150.643 299.007 152.012 294.014 155.333 292.088 158.9 290.019 166.829 286.446 167.564 282.076L167.605 281.797C168.616 281.4 168.344 281.578 167.589 281.559 161.172 281.397 154.718 287.092 160.015 277.989 161.358 275.681 165.681 274.951 168.125 274.403 172.682 278.888 176.196 270.073 177.375 267.06 181.814 255.72 170.369 265.535 168.317 266.72 166.321 267.872 164.233 268.735 162.057 269.48 163.524 265.043 163.825 260.669 168.032 258.076 173.969 254.416 179.466 250.207 183.332 244.256 178.38 245.085 173.83 247.307 168.847 248.107 174.078 239.686 182.382 241.773 184.044 233.519 183.509 233.097 182.862 232.866 182.229 232.627L181.75 232.447C180.06 231.807 178.224 232.066 176.452 232.159 179.242 227.077 188.441 225.342 187.804 221.875L186.875 221.235C185.783 220.829 184.813 221.721 183.901 222.228L177.944 225.644C178.713 222.513 181.227 213.937 184.35 212.875 189.616 211.083 192.499 214.118 196.125 205.487 195.004 204.684 193.682 204.156 192.623 203.28L191.849 203.107C193.43 208.085 187.218 209.199 185.817 208.375 186.424 206.28 189.981 204.123 191.692 202.874zM318.431 96.9234L340.811 113.086 290.452 231.809 271.399 274.443 230.589 360.427C224.663 372.286 218.237 383.98 211.07 395.138 209.828 397.013 208.645 398.518 206.868 399.918 202.258 398.419 199.252 396.007 196.065 392.34 192.784 388.566 193.419 385.714 194.505 380.999L205.603 344.801 226.26 296.258 258.804 224.647 288.345 156.086 311.381 109.622C313.664 105.363 315.855 101.013 318.431 96.9234z" transform="scale(2.92969)"></path></svg>